<?xml version="1.0" encoding="UTF-8" standalone="no"?><svg xmlns="http://www.w3.org/2000/svg" xmlns:xlink="http://www.w3.org/1999/xlink" contentStyleType="text/css" height="167px" preserveAspectRatio="none" style="width:411px;height:167px;background:#FFFFFF;" version="1.1" viewBox="0 0 411 167" width="411px" zoomAndPan="magnify"><defs/><g><!--MD5=[c3fd6fd70c1f956c0aa70d5a42fdf9cf]
class encounter--><g id="elem_encounter"><rect codeLine="4" fill="#F1F1F1" height="42.7031" id="encounter" rx="2.5" ry="2.5" style="stroke:#181818;stroke-width:0.5;" width="272" x="60.5" y="7"/><ellipse cx="75.5" cy="28.3516" fill="#ADD1B2" rx="11" ry="11" style="stroke:#181818;stroke-width:1.0;"/><path d="M78.2656,24.2266 Q78.4219,24.0078 78.6094,23.8984 Q78.7969,23.7891 79.0156,23.7891 Q79.3906,23.7891 79.625,24.0469 Q79.8594,24.3047 79.8594,24.9141 L79.8594,26.3672 Q79.8594,26.9766 79.625,27.2422 Q79.3906,27.5078 79.0156,27.5078 Q78.6719,27.5078 78.4688,27.3047 Q78.2656,27.1172 78.1563,26.6016 Q78.1094,26.2422 77.9219,26.0547 Q77.5938,25.6797 76.9844,25.4609 Q76.375,25.2422 75.75,25.2422 Q74.9844,25.2422 74.3516,25.5703 Q73.7188,25.8984 73.2266,26.6484 Q72.7344,27.3984 72.7344,28.4297 L72.7344,29.5234 Q72.7344,30.7578 73.625,31.5781 Q74.5156,32.3984 76.1094,32.3984 Q77.0469,32.3984 77.7031,32.1484 Q78.0938,31.9922 78.5156,31.5547 Q78.7813,31.2891 78.9297,31.2109 Q79.0781,31.1328 79.2813,31.1328 Q79.6094,31.1328 79.8672,31.3906 Q80.125,31.6484 80.125,31.9922 Q80.125,32.3359 79.7813,32.7422 Q79.2813,33.3203 78.4844,33.6484 Q77.4063,34.1016 76.1094,34.1016 Q74.5938,34.1016 73.3906,33.4766 Q72.4063,32.9766 71.7188,31.9063 Q71.0313,30.8359 71.0313,29.5547 L71.0313,28.3984 Q71.0313,27.0703 71.6484,25.9219 Q72.2656,24.7734 73.3594,24.1563 Q74.4531,23.5391 75.6875,23.5391 Q76.4219,23.5391 77.0703,23.7031 Q77.7188,23.8672 78.2656,24.2266 Z " fill="#000000"/><text fill="#000000" font-family="sans-serif" font-size="12" font-style="italic" lengthAdjust="spacing" textLength="147" x="136" y="24.457">«MedComCoreEncounter»</text><text fill="#000000" font-family="sans-serif" font-size="14" lengthAdjust="spacing" textLength="240" x="89.5" y="41.627">MedComHospitalNotificationEncounter</text></g><!--MD5=[86fcfc7a3ddeef2443f03e9b03bcacd4]
class patient--><g id="elem_patient"><rect codeLine="5" fill="#F1F1F1" height="32" id="patient" rx="2.5" ry="2.5" style="stroke:#181818;stroke-width:0.5;" width="163" x="7" y="128"/><ellipse cx="22" cy="144" fill="#ADD1B2" rx="11" ry="11" style="stroke:#181818;stroke-width:1.0;"/><path d="M24.7656,139.875 Q24.9219,139.6563 25.1094,139.5469 Q25.2969,139.4375 25.5156,139.4375 Q25.8906,139.4375 26.125,139.6953 Q26.3594,139.9531 26.3594,140.5625 L26.3594,142.0156 Q26.3594,142.625 26.125,142.8906 Q25.8906,143.1563 25.5156,143.1563 Q25.1719,143.1563 24.9688,142.9531 Q24.7656,142.7656 24.6563,142.25 Q24.6094,141.8906 24.4219,141.7031 Q24.0938,141.3281 23.4844,141.1094 Q22.875,140.8906 22.25,140.8906 Q21.4844,140.8906 20.8516,141.2188 Q20.2188,141.5469 19.7266,142.2969 Q19.2344,143.0469 19.2344,144.0781 L19.2344,145.1719 Q19.2344,146.4063 20.125,147.2266 Q21.0156,148.0469 22.6094,148.0469 Q23.5469,148.0469 24.2031,147.7969 Q24.5938,147.6406 25.0156,147.2031 Q25.2813,146.9375 25.4297,146.8594 Q25.5781,146.7813 25.7813,146.7813 Q26.1094,146.7813 26.3672,147.0391 Q26.625,147.2969 26.625,147.6406 Q26.625,147.9844 26.2813,148.3906 Q25.7813,148.9688 24.9844,149.2969 Q23.9063,149.75 22.6094,149.75 Q21.0938,149.75 19.8906,149.125 Q18.9063,148.625 18.2188,147.5547 Q17.5313,146.4844 17.5313,145.2031 L17.5313,144.0469 Q17.5313,142.7188 18.1484,141.5703 Q18.7656,140.4219 19.8594,139.8047 Q20.9531,139.1875 22.1875,139.1875 Q22.9219,139.1875 23.5703,139.3516 Q24.2188,139.5156 24.7656,139.875 Z " fill="#000000"/><text fill="#000000" font-family="sans-serif" font-size="14" lengthAdjust="spacing" textLength="131" x="36" y="149.7285">MedComCorePatient</text></g><!--MD5=[9aa2d8b1be83e7388577d75f2a942206]
class serviceProvider--><g id="elem_serviceProvider"><rect codeLine="6" fill="#F1F1F1" height="32" id="serviceProvider" rx="2.5" ry="2.5" style="stroke:#181818;stroke-width:0.5;" width="199" x="205" y="128"/><ellipse cx="220" cy="144" fill="#ADD1B2" rx="11" ry="11" style="stroke:#181818;stroke-width:1.0;"/><path d="M222.7656,139.875 Q222.9219,139.6563 223.1094,139.5469 Q223.2969,139.4375 223.5156,139.4375 Q223.8906,139.4375 224.125,139.6953 Q224.3594,139.9531 224.3594,140.5625 L224.3594,142.0156 Q224.3594,142.625 224.125,142.8906 Q223.8906,143.1563 223.5156,143.1563 Q223.1719,143.1563 222.9688,142.9531 Q222.7656,142.7656 222.6563,142.25 Q222.6094,141.8906 222.4219,141.7031 Q222.0938,141.3281 221.4844,141.1094 Q220.875,140.8906 220.25,140.8906 Q219.4844,140.8906 218.8516,141.2188 Q218.2188,141.5469 217.7266,142.2969 Q217.2344,143.0469 217.2344,144.0781 L217.2344,145.1719 Q217.2344,146.4063 218.125,147.2266 Q219.0156,148.0469 220.6094,148.0469 Q221.5469,148.0469 222.2031,147.7969 Q222.5938,147.6406 223.0156,147.2031 Q223.2813,146.9375 223.4297,146.8594 Q223.5781,146.7813 223.7813,146.7813 Q224.1094,146.7813 224.3672,147.0391 Q224.625,147.2969 224.625,147.6406 Q224.625,147.9844 224.2813,148.3906 Q223.7813,148.9688 222.9844,149.2969 Q221.9063,149.75 220.6094,149.75 Q219.0938,149.75 217.8906,149.125 Q216.9063,148.625 216.2188,147.5547 Q215.5313,146.4844 215.5313,145.2031 L215.5313,144.0469 Q215.5313,142.7188 216.1484,141.5703 Q216.7656,140.4219 217.8594,139.8047 Q218.9531,139.1875 220.1875,139.1875 Q220.9219,139.1875 221.5703,139.3516 Q222.2188,139.5156 222.7656,139.875 Z " fill="#000000"/><text fill="#000000" font-family="sans-serif" font-size="14" lengthAdjust="spacing" textLength="167" x="234" y="149.7285">MedComCoreOrganization</text></g><!--MD5=[2d55e5f0f8636025baba599069dca0b3]
link encounter to patient--><g id="link_encounter_patient"><path codeLine="8" d="M176.94,50.05 C155.67,72.41 122.15,107.64 103.07,127.69 " fill="none" id="encounter-patient" style="stroke:#181818;stroke-width:1.0;"/><text fill="#000000" font-family="sans-serif" font-size="13" lengthAdjust="spacing" textLength="42" x="147.5" y="94.4951">subject</text></g><!--MD5=[3410e7a3c219c1b2b4fcec408cc49989]
link encounter to serviceProvider--><g id="link_encounter_serviceProvider"><path codeLine="9" d="M216.06,50.05 C237.33,72.41 270.85,107.64 289.93,127.69 " fill="none" id="encounter-serviceProvider" style="stroke:#181818;stroke-width:1.0;"/><text fill="#000000" font-family="sans-serif" font-size="13" lengthAdjust="spacing" textLength="88" x="260.5" y="94.4951">service provider</text></g><!--MD5=[25a00e604eb7afae99a3700c631a223d]
@startuml HospitalNotificationEncounter

hide empty members

class "MedComHospitalNotificationEncounter" as encounter <<MedComCoreEncounter>>
class "MedComCorePatient" as patient
class "MedComCoreOrganization" as serviceProvider

encounter - - patient : "subject"
encounter - - serviceProvider : "service provider"



@enduml

PlantUML version 1.2022.7(Mon Aug 22 19:01:30 CEST 2022)
(GPL source distribution)
Java Runtime: Java(TM) SE Runtime Environment
JVM: Java HotSpot(TM) 64-Bit Server VM
Default Encoding: Cp1252
Language: da
Country: DK
--></g></svg>