<?xml version="1.0" encoding="UTF-8" standalone="no"?><svg xmlns="http://www.w3.org/2000/svg" xmlns:xlink="http://www.w3.org/1999/xlink" contentStyleType="text/css" height="288px" preserveAspectRatio="none" style="width:628px;height:288px;background:#FFFFFF;" version="1.1" viewBox="0 0 628 288" width="628px" zoomAndPan="magnify"><defs/><g><!--MD5=[d74c0150cefd6163f70b4324cc822a09]
class messageHeader--><g id="elem_messageHeader"><rect codeLine="5" fill="#F1F1F1" height="42.7031" id="messageHeader" rx="2.5" ry="2.5" style="stroke:#181818;stroke-width:0.5;" width="310" x="51" y="7"/><ellipse cx="66" cy="28.3516" fill="#ADD1B2" rx="11" ry="11" style="stroke:#181818;stroke-width:1.0;"/><path d="M68.7656,24.2266 Q68.9219,24.0078 69.1094,23.8984 Q69.2969,23.7891 69.5156,23.7891 Q69.8906,23.7891 70.125,24.0469 Q70.3594,24.3047 70.3594,24.9141 L70.3594,26.3672 Q70.3594,26.9766 70.125,27.2422 Q69.8906,27.5078 69.5156,27.5078 Q69.1719,27.5078 68.9688,27.3047 Q68.7656,27.1172 68.6563,26.6016 Q68.6094,26.2422 68.4219,26.0547 Q68.0938,25.6797 67.4844,25.4609 Q66.875,25.2422 66.25,25.2422 Q65.4844,25.2422 64.8516,25.5703 Q64.2188,25.8984 63.7266,26.6484 Q63.2344,27.3984 63.2344,28.4297 L63.2344,29.5234 Q63.2344,30.7578 64.125,31.5781 Q65.0156,32.3984 66.6094,32.3984 Q67.5469,32.3984 68.2031,32.1484 Q68.5938,31.9922 69.0156,31.5547 Q69.2813,31.2891 69.4297,31.2109 Q69.5781,31.1328 69.7813,31.1328 Q70.1094,31.1328 70.3672,31.3906 Q70.625,31.6484 70.625,31.9922 Q70.625,32.3359 70.2813,32.7422 Q69.7813,33.3203 68.9844,33.6484 Q67.9063,34.1016 66.6094,34.1016 Q65.0938,34.1016 63.8906,33.4766 Q62.9063,32.9766 62.2188,31.9063 Q61.5313,30.8359 61.5313,29.5547 L61.5313,28.3984 Q61.5313,27.0703 62.1484,25.9219 Q62.7656,24.7734 63.8594,24.1563 Q64.9531,23.5391 66.1875,23.5391 Q66.9219,23.5391 67.5703,23.7031 Q68.2188,23.8672 68.7656,24.2266 Z " fill="#000000"/><text fill="#000000" font-family="sans-serif" font-size="12" font-style="italic" lengthAdjust="spacing" textLength="213" x="112.5" y="24.457">«MedComMessagingMessageHeader»</text><text fill="#000000" font-family="sans-serif" font-size="14" lengthAdjust="spacing" textLength="278" x="80" y="41.627">MedComHospitalNotificationMessageHeader</text></g><!--MD5=[d64d5c7357c79f774106f79272da7625]
class organization--><g id="elem_organization"><rect codeLine="6" fill="#F1F1F1" height="42.7031" id="organization" rx="2.5" ry="2.5" style="stroke:#181818;stroke-width:0.5;" width="236" x="7" y="128"/><ellipse cx="22" cy="149.3516" fill="#ADD1B2" rx="11" ry="11" style="stroke:#181818;stroke-width:1.0;"/><path d="M24.7656,145.2266 Q24.9219,145.0078 25.1094,144.8984 Q25.2969,144.7891 25.5156,144.7891 Q25.8906,144.7891 26.125,145.0469 Q26.3594,145.3047 26.3594,145.9141 L26.3594,147.3672 Q26.3594,147.9766 26.125,148.2422 Q25.8906,148.5078 25.5156,148.5078 Q25.1719,148.5078 24.9688,148.3047 Q24.7656,148.1172 24.6563,147.6016 Q24.6094,147.2422 24.4219,147.0547 Q24.0938,146.6797 23.4844,146.4609 Q22.875,146.2422 22.25,146.2422 Q21.4844,146.2422 20.8516,146.5703 Q20.2188,146.8984 19.7266,147.6484 Q19.2344,148.3984 19.2344,149.4297 L19.2344,150.5234 Q19.2344,151.7578 20.125,152.5781 Q21.0156,153.3984 22.6094,153.3984 Q23.5469,153.3984 24.2031,153.1484 Q24.5938,152.9922 25.0156,152.5547 Q25.2813,152.2891 25.4297,152.2109 Q25.5781,152.1328 25.7813,152.1328 Q26.1094,152.1328 26.3672,152.3906 Q26.625,152.6484 26.625,152.9922 Q26.625,153.3359 26.2813,153.7422 Q25.7813,154.3203 24.9844,154.6484 Q23.9063,155.1016 22.6094,155.1016 Q21.0938,155.1016 19.8906,154.4766 Q18.9063,153.9766 18.2188,152.9063 Q17.5313,151.8359 17.5313,150.5547 L17.5313,149.3984 Q17.5313,148.0703 18.1484,146.9219 Q18.7656,145.7734 19.8594,145.1563 Q20.9531,144.5391 22.1875,144.5391 Q22.9219,144.5391 23.5703,144.7031 Q24.2188,144.8672 24.7656,145.2266 Z " fill="#000000"/><text fill="#000000" font-family="sans-serif" font-size="12" font-style="italic" lengthAdjust="spacing" textLength="162" x="57" y="145.457">«MedComCoreOrganization»</text><text fill="#000000" font-family="sans-serif" font-size="14" lengthAdjust="spacing" textLength="204" x="36" y="162.627">MedComMessagingOrganization</text></g><!--MD5=[86fcfc7a3ddeef2443f03e9b03bcacd4]
class patient--><g id="elem_patient"><rect codeLine="7" fill="#F1F1F1" height="32" id="patient" rx="2.5" ry="2.5" style="stroke:#181818;stroke-width:0.5;" width="163" x="224.5" y="249"/><ellipse cx="239.5" cy="265" fill="#ADD1B2" rx="11" ry="11" style="stroke:#181818;stroke-width:1.0;"/><path d="M242.2656,260.875 Q242.4219,260.6563 242.6094,260.5469 Q242.7969,260.4375 243.0156,260.4375 Q243.3906,260.4375 243.625,260.6953 Q243.8594,260.9531 243.8594,261.5625 L243.8594,263.0156 Q243.8594,263.625 243.625,263.8906 Q243.3906,264.1563 243.0156,264.1563 Q242.6719,264.1563 242.4688,263.9531 Q242.2656,263.7656 242.1563,263.25 Q242.1094,262.8906 241.9219,262.7031 Q241.5938,262.3281 240.9844,262.1094 Q240.375,261.8906 239.75,261.8906 Q238.9844,261.8906 238.3516,262.2188 Q237.7188,262.5469 237.2266,263.2969 Q236.7344,264.0469 236.7344,265.0781 L236.7344,266.1719 Q236.7344,267.4063 237.625,268.2266 Q238.5156,269.0469 240.1094,269.0469 Q241.0469,269.0469 241.7031,268.7969 Q242.0938,268.6406 242.5156,268.2031 Q242.7813,267.9375 242.9297,267.8594 Q243.0781,267.7813 243.2813,267.7813 Q243.6094,267.7813 243.8672,268.0391 Q244.125,268.2969 244.125,268.6406 Q244.125,268.9844 243.7813,269.3906 Q243.2813,269.9688 242.4844,270.2969 Q241.4063,270.75 240.1094,270.75 Q238.5938,270.75 237.3906,270.125 Q236.4063,269.625 235.7188,268.5547 Q235.0313,267.4844 235.0313,266.2031 L235.0313,265.0469 Q235.0313,263.7188 235.6484,262.5703 Q236.2656,261.4219 237.3594,260.8047 Q238.4531,260.1875 239.6875,260.1875 Q240.4219,260.1875 241.0703,260.3516 Q241.7188,260.5156 242.2656,260.875 Z " fill="#000000"/><text fill="#000000" font-family="sans-serif" font-size="14" lengthAdjust="spacing" textLength="131" x="253.5" y="270.7285">MedComCorePatient</text></g><!--MD5=[c3fd6fd70c1f956c0aa70d5a42fdf9cf]
class encounter--><g id="elem_encounter"><rect codeLine="8" fill="#F1F1F1" height="42.7031" id="encounter" rx="2.5" ry="2.5" style="stroke:#181818;stroke-width:0.5;" width="272" x="278" y="128"/><ellipse cx="293" cy="149.3516" fill="#ADD1B2" rx="11" ry="11" style="stroke:#181818;stroke-width:1.0;"/><path d="M295.7656,145.2266 Q295.9219,145.0078 296.1094,144.8984 Q296.2969,144.7891 296.5156,144.7891 Q296.8906,144.7891 297.125,145.0469 Q297.3594,145.3047 297.3594,145.9141 L297.3594,147.3672 Q297.3594,147.9766 297.125,148.2422 Q296.8906,148.5078 296.5156,148.5078 Q296.1719,148.5078 295.9688,148.3047 Q295.7656,148.1172 295.6563,147.6016 Q295.6094,147.2422 295.4219,147.0547 Q295.0938,146.6797 294.4844,146.4609 Q293.875,146.2422 293.25,146.2422 Q292.4844,146.2422 291.8516,146.5703 Q291.2188,146.8984 290.7266,147.6484 Q290.2344,148.3984 290.2344,149.4297 L290.2344,150.5234 Q290.2344,151.7578 291.125,152.5781 Q292.0156,153.3984 293.6094,153.3984 Q294.5469,153.3984 295.2031,153.1484 Q295.5938,152.9922 296.0156,152.5547 Q296.2813,152.2891 296.4297,152.2109 Q296.5781,152.1328 296.7813,152.1328 Q297.1094,152.1328 297.3672,152.3906 Q297.625,152.6484 297.625,152.9922 Q297.625,153.3359 297.2813,153.7422 Q296.7813,154.3203 295.9844,154.6484 Q294.9063,155.1016 293.6094,155.1016 Q292.0938,155.1016 290.8906,154.4766 Q289.9063,153.9766 289.2188,152.9063 Q288.5313,151.8359 288.5313,150.5547 L288.5313,149.3984 Q288.5313,148.0703 289.1484,146.9219 Q289.7656,145.7734 290.8594,145.1563 Q291.9531,144.5391 293.1875,144.5391 Q293.9219,144.5391 294.5703,144.7031 Q295.2188,144.8672 295.7656,145.2266 Z " fill="#000000"/><text fill="#000000" font-family="sans-serif" font-size="12" font-style="italic" lengthAdjust="spacing" textLength="147" x="353.5" y="145.457">«MedComCoreEncounter»</text><text fill="#000000" font-family="sans-serif" font-size="14" lengthAdjust="spacing" textLength="240" x="307" y="162.627">MedComHospitalNotificationEncounter</text></g><!--MD5=[9aa2d8b1be83e7388577d75f2a942206]
class serviceProvider--><g id="elem_serviceProvider"><rect codeLine="9" fill="#F1F1F1" height="32" id="serviceProvider" rx="2.5" ry="2.5" style="stroke:#181818;stroke-width:0.5;" width="199" x="422.5" y="249"/><ellipse cx="437.5" cy="265" fill="#ADD1B2" rx="11" ry="11" style="stroke:#181818;stroke-width:1.0;"/><path d="M440.2656,260.875 Q440.4219,260.6563 440.6094,260.5469 Q440.7969,260.4375 441.0156,260.4375 Q441.3906,260.4375 441.625,260.6953 Q441.8594,260.9531 441.8594,261.5625 L441.8594,263.0156 Q441.8594,263.625 441.625,263.8906 Q441.3906,264.1563 441.0156,264.1563 Q440.6719,264.1563 440.4688,263.9531 Q440.2656,263.7656 440.1563,263.25 Q440.1094,262.8906 439.9219,262.7031 Q439.5938,262.3281 438.9844,262.1094 Q438.375,261.8906 437.75,261.8906 Q436.9844,261.8906 436.3516,262.2188 Q435.7188,262.5469 435.2266,263.2969 Q434.7344,264.0469 434.7344,265.0781 L434.7344,266.1719 Q434.7344,267.4063 435.625,268.2266 Q436.5156,269.0469 438.1094,269.0469 Q439.0469,269.0469 439.7031,268.7969 Q440.0938,268.6406 440.5156,268.2031 Q440.7813,267.9375 440.9297,267.8594 Q441.0781,267.7813 441.2813,267.7813 Q441.6094,267.7813 441.8672,268.0391 Q442.125,268.2969 442.125,268.6406 Q442.125,268.9844 441.7813,269.3906 Q441.2813,269.9688 440.4844,270.2969 Q439.4063,270.75 438.1094,270.75 Q436.5938,270.75 435.3906,270.125 Q434.4063,269.625 433.7188,268.5547 Q433.0313,267.4844 433.0313,266.2031 L433.0313,265.0469 Q433.0313,263.7188 433.6484,262.5703 Q434.2656,261.4219 435.3594,260.8047 Q436.4531,260.1875 437.6875,260.1875 Q438.4219,260.1875 439.0703,260.3516 Q439.7188,260.5156 440.2656,260.875 Z " fill="#000000"/><text fill="#000000" font-family="sans-serif" font-size="14" lengthAdjust="spacing" textLength="167" x="451.5" y="270.7285">MedComCoreOrganization</text></g><!--MD5=[6027060c45d81892b33fac66f44bd9f1]
link messageHeader to encounter--><g id="link_messageHeader_encounter"><path codeLine="12" d="M242.23,50.23 C280.29,72 339.8,106.05 377.84,127.81 " fill="none" id="messageHeader-encounter" style="stroke:#181818;stroke-width:1.0;"/><text fill="#000000" font-family="sans-serif" font-size="13" lengthAdjust="spacing" textLength="31" x="323" y="94.4951">focus</text></g><!--MD5=[2d55e5f0f8636025baba599069dca0b3]
link encounter to patient--><g id="link_encounter_patient"><path codeLine="13" d="M394.44,171.05 C373.17,193.41 339.65,228.64 320.57,248.69 " fill="none" id="encounter-patient" style="stroke:#181818;stroke-width:1.0;"/><text fill="#000000" font-family="sans-serif" font-size="13" lengthAdjust="spacing" textLength="42" x="364" y="215.4951">subject</text></g><!--MD5=[3410e7a3c219c1b2b4fcec408cc49989]
link encounter to serviceProvider--><g id="link_encounter_serviceProvider"><path codeLine="14" d="M433.56,171.05 C454.83,193.41 488.35,228.64 507.43,248.69 " fill="none" id="encounter-serviceProvider" style="stroke:#181818;stroke-width:1.0;"/><text fill="#000000" font-family="sans-serif" font-size="13" lengthAdjust="spacing" textLength="88" x="478" y="215.4951">service provider</text></g><!--MD5=[746a33207db6e799502ef4ecf0370aea]
link messageHeader to organization--><g id="link_messageHeader_organization"><path codeLine="17" d="M153.16,50.14 C140.77,57.61 129.12,67.41 122,80 C113.8,94.51 115.46,113.63 118.66,127.99 " fill="none" id="messageHeader-organization" style="stroke:#181818;stroke-width:1.0;"/><text fill="#000000" font-family="sans-serif" font-size="13" lengthAdjust="spacing" textLength="39" x="123" y="94.4951">sender</text></g><!--MD5=[746a33207db6e799502ef4ecf0370aea]
link messageHeader to organization--><g id="link_messageHeader_organization"><path codeLine="18" d="M195.47,50.15 C188.09,64.05 177.67,82.59 167,98 C159.99,108.12 151.42,118.69 143.85,127.53 " fill="none" id="messageHeader-organization-1" style="stroke:#181818;stroke-width:1.0;"/><text fill="#000000" font-family="sans-serif" font-size="13" lengthAdjust="spacing" textLength="44" x="179" y="94.4951">receiver</text></g><!--MD5=[b101b20df6f7799d585ae92132929cd4]
@startuml HospitalNotificationMessageHeader

hide empty members


class "MedComHospitalNotificationMessageHeader" as messageHeader <<MedComMessagingMessageHeader>>
class "MedComMessagingOrganization" as organization <<MedComCoreOrganization>>
class "MedComCorePatient" as patient
class "MedComHospitalNotificationEncounter" as encounter <<MedComCoreEncounter>>
class "MedComCoreOrganization" as serviceProvider


messageHeader - - encounter : "focus"
encounter - - patient : "subject"
encounter - - serviceProvider : "service provider"


messageHeader - - organization : "sender"
messageHeader - - organization : "receiver"

@enduml

PlantUML version 1.2022.7(Mon Aug 22 19:01:30 CEST 2022)
(GPL source distribution)
Java Runtime: Java(TM) SE Runtime Environment
JVM: Java HotSpot(TM) 64-Bit Server VM
Default Encoding: Cp1252
Language: da
Country: DK
--></g></svg>