<?xml version="1.0" encoding="UTF-8" standalone="no"?><svg xmlns="http://www.w3.org/2000/svg" xmlns:xlink="http://www.w3.org/1999/xlink" contentStyleType="text/css" height="519px" preserveAspectRatio="none" style="width:610px;height:519px;background:#FFFFFF;" version="1.1" viewBox="0 0 610 519" width="610px" zoomAndPan="magnify"><defs/><g><!--MD5=[76410cda49e5d7b75c5bd06aa47a685f]
class message--><g id="elem_message"><rect codeLine="4" fill="#F1F1F1" height="42.7031" id="message" rx="2.5" ry="2.5" style="stroke:#181818;stroke-width:0.5;" width="264" x="193.5" y="7"/><ellipse cx="208.5" cy="28.3516" fill="#ADD1B2" rx="11" ry="11" style="stroke:#181818;stroke-width:1.0;"/><path d="M211.2656,24.2266 Q211.4219,24.0078 211.6094,23.8984 Q211.7969,23.7891 212.0156,23.7891 Q212.3906,23.7891 212.625,24.0469 Q212.8594,24.3047 212.8594,24.9141 L212.8594,26.3672 Q212.8594,26.9766 212.625,27.2422 Q212.3906,27.5078 212.0156,27.5078 Q211.6719,27.5078 211.4688,27.3047 Q211.2656,27.1172 211.1563,26.6016 Q211.1094,26.2422 210.9219,26.0547 Q210.5938,25.6797 209.9844,25.4609 Q209.375,25.2422 208.75,25.2422 Q207.9844,25.2422 207.3516,25.5703 Q206.7188,25.8984 206.2266,26.6484 Q205.7344,27.3984 205.7344,28.4297 L205.7344,29.5234 Q205.7344,30.7578 206.625,31.5781 Q207.5156,32.3984 209.1094,32.3984 Q210.0469,32.3984 210.7031,32.1484 Q211.0938,31.9922 211.5156,31.5547 Q211.7813,31.2891 211.9297,31.2109 Q212.0781,31.1328 212.2813,31.1328 Q212.6094,31.1328 212.8672,31.3906 Q213.125,31.6484 213.125,31.9922 Q213.125,32.3359 212.7813,32.7422 Q212.2813,33.3203 211.4844,33.6484 Q210.4063,34.1016 209.1094,34.1016 Q207.5938,34.1016 206.3906,33.4766 Q205.4063,32.9766 204.7188,31.9063 Q204.0313,30.8359 204.0313,29.5547 L204.0313,28.3984 Q204.0313,27.0703 204.6484,25.9219 Q205.2656,24.7734 206.3594,24.1563 Q207.4531,23.5391 208.6875,23.5391 Q209.4219,23.5391 210.0703,23.7031 Q210.7188,23.8672 211.2656,24.2266 Z " fill="#000000"/><text fill="#000000" font-family="sans-serif" font-size="12" font-style="italic" lengthAdjust="spacing" textLength="172" x="252.5" y="24.457">«MedComMessagingMessage»</text><text fill="#000000" font-family="sans-serif" font-size="14" lengthAdjust="spacing" textLength="232" x="222.5" y="41.627">MedComHospitalNotificationMessage</text></g><!--MD5=[d74c0150cefd6163f70b4324cc822a09]
class messageHeader--><g id="elem_messageHeader"><rect codeLine="5" fill="#F1F1F1" height="42.7031" id="messageHeader" rx="2.5" ry="2.5" style="stroke:#181818;stroke-width:0.5;" width="310" x="141.5" y="238"/><ellipse cx="156.5" cy="259.3516" fill="#ADD1B2" rx="11" ry="11" style="stroke:#181818;stroke-width:1.0;"/><path d="M159.2656,255.2266 Q159.4219,255.0078 159.6094,254.8984 Q159.7969,254.7891 160.0156,254.7891 Q160.3906,254.7891 160.625,255.0469 Q160.8594,255.3047 160.8594,255.9141 L160.8594,257.3672 Q160.8594,257.9766 160.625,258.2422 Q160.3906,258.5078 160.0156,258.5078 Q159.6719,258.5078 159.4688,258.3047 Q159.2656,258.1172 159.1563,257.6016 Q159.1094,257.2422 158.9219,257.0547 Q158.5938,256.6797 157.9844,256.4609 Q157.375,256.2422 156.75,256.2422 Q155.9844,256.2422 155.3516,256.5703 Q154.7188,256.8984 154.2266,257.6484 Q153.7344,258.3984 153.7344,259.4297 L153.7344,260.5234 Q153.7344,261.7578 154.625,262.5781 Q155.5156,263.3984 157.1094,263.3984 Q158.0469,263.3984 158.7031,263.1484 Q159.0938,262.9922 159.5156,262.5547 Q159.7813,262.2891 159.9297,262.2109 Q160.0781,262.1328 160.2813,262.1328 Q160.6094,262.1328 160.8672,262.3906 Q161.125,262.6484 161.125,262.9922 Q161.125,263.3359 160.7813,263.7422 Q160.2813,264.3203 159.4844,264.6484 Q158.4063,265.1016 157.1094,265.1016 Q155.5938,265.1016 154.3906,264.4766 Q153.4063,263.9766 152.7188,262.9063 Q152.0313,261.8359 152.0313,260.5547 L152.0313,259.3984 Q152.0313,258.0703 152.6484,256.9219 Q153.2656,255.7734 154.3594,255.1563 Q155.4531,254.5391 156.6875,254.5391 Q157.4219,254.5391 158.0703,254.7031 Q158.7188,254.8672 159.2656,255.2266 Z " fill="#000000"/><text fill="#000000" font-family="sans-serif" font-size="12" font-style="italic" lengthAdjust="spacing" textLength="213" x="203" y="255.457">«MedComMessagingMessageHeader»</text><text fill="#000000" font-family="sans-serif" font-size="14" lengthAdjust="spacing" textLength="278" x="170.5" y="272.627">MedComHospitalNotificationMessageHeader</text></g><!--MD5=[d64d5c7357c79f774106f79272da7625]
class organization--><g id="elem_organization"><rect codeLine="6" fill="#F1F1F1" height="42.7031" id="organization" rx="2.5" ry="2.5" style="stroke:#181818;stroke-width:0.5;" width="236" x="367.5" y="359"/><ellipse cx="382.5" cy="380.3516" fill="#ADD1B2" rx="11" ry="11" style="stroke:#181818;stroke-width:1.0;"/><path d="M385.2656,376.2266 Q385.4219,376.0078 385.6094,375.8984 Q385.7969,375.7891 386.0156,375.7891 Q386.3906,375.7891 386.625,376.0469 Q386.8594,376.3047 386.8594,376.9141 L386.8594,378.3672 Q386.8594,378.9766 386.625,379.2422 Q386.3906,379.5078 386.0156,379.5078 Q385.6719,379.5078 385.4688,379.3047 Q385.2656,379.1172 385.1563,378.6016 Q385.1094,378.2422 384.9219,378.0547 Q384.5938,377.6797 383.9844,377.4609 Q383.375,377.2422 382.75,377.2422 Q381.9844,377.2422 381.3516,377.5703 Q380.7188,377.8984 380.2266,378.6484 Q379.7344,379.3984 379.7344,380.4297 L379.7344,381.5234 Q379.7344,382.7578 380.625,383.5781 Q381.5156,384.3984 383.1094,384.3984 Q384.0469,384.3984 384.7031,384.1484 Q385.0938,383.9922 385.5156,383.5547 Q385.7813,383.2891 385.9297,383.2109 Q386.0781,383.1328 386.2813,383.1328 Q386.6094,383.1328 386.8672,383.3906 Q387.125,383.6484 387.125,383.9922 Q387.125,384.3359 386.7813,384.7422 Q386.2813,385.3203 385.4844,385.6484 Q384.4063,386.1016 383.1094,386.1016 Q381.5938,386.1016 380.3906,385.4766 Q379.4063,384.9766 378.7188,383.9063 Q378.0313,382.8359 378.0313,381.5547 L378.0313,380.3984 Q378.0313,379.0703 378.6484,377.9219 Q379.2656,376.7734 380.3594,376.1563 Q381.4531,375.5391 382.6875,375.5391 Q383.4219,375.5391 384.0703,375.7031 Q384.7188,375.8672 385.2656,376.2266 Z " fill="#000000"/><text fill="#000000" font-family="sans-serif" font-size="12" font-style="italic" lengthAdjust="spacing" textLength="162" x="417.5" y="376.457">«MedComCoreOrganization»</text><text fill="#000000" font-family="sans-serif" font-size="14" lengthAdjust="spacing" textLength="204" x="396.5" y="393.627">MedComMessagingOrganization</text></g><!--MD5=[86fcfc7a3ddeef2443f03e9b03bcacd4]
class patient--><g id="elem_patient"><rect codeLine="7" fill="#F1F1F1" height="32" id="patient" rx="2.5" ry="2.5" style="stroke:#181818;stroke-width:0.5;" width="163" x="7" y="480"/><ellipse cx="22" cy="496" fill="#ADD1B2" rx="11" ry="11" style="stroke:#181818;stroke-width:1.0;"/><path d="M24.7656,491.875 Q24.9219,491.6563 25.1094,491.5469 Q25.2969,491.4375 25.5156,491.4375 Q25.8906,491.4375 26.125,491.6953 Q26.3594,491.9531 26.3594,492.5625 L26.3594,494.0156 Q26.3594,494.625 26.125,494.8906 Q25.8906,495.1563 25.5156,495.1563 Q25.1719,495.1563 24.9688,494.9531 Q24.7656,494.7656 24.6563,494.25 Q24.6094,493.8906 24.4219,493.7031 Q24.0938,493.3281 23.4844,493.1094 Q22.875,492.8906 22.25,492.8906 Q21.4844,492.8906 20.8516,493.2188 Q20.2188,493.5469 19.7266,494.2969 Q19.2344,495.0469 19.2344,496.0781 L19.2344,497.1719 Q19.2344,498.4063 20.125,499.2266 Q21.0156,500.0469 22.6094,500.0469 Q23.5469,500.0469 24.2031,499.7969 Q24.5938,499.6406 25.0156,499.2031 Q25.2813,498.9375 25.4297,498.8594 Q25.5781,498.7813 25.7813,498.7813 Q26.1094,498.7813 26.3672,499.0391 Q26.625,499.2969 26.625,499.6406 Q26.625,499.9844 26.2813,500.3906 Q25.7813,500.9688 24.9844,501.2969 Q23.9063,501.75 22.6094,501.75 Q21.0938,501.75 19.8906,501.125 Q18.9063,500.625 18.2188,499.5547 Q17.5313,498.4844 17.5313,497.2031 L17.5313,496.0469 Q17.5313,494.7188 18.1484,493.5703 Q18.7656,492.4219 19.8594,491.8047 Q20.9531,491.1875 22.1875,491.1875 Q22.9219,491.1875 23.5703,491.3516 Q24.2188,491.5156 24.7656,491.875 Z " fill="#000000"/><text fill="#000000" font-family="sans-serif" font-size="14" lengthAdjust="spacing" textLength="131" x="36" y="501.7285">MedComCorePatient</text></g><!--MD5=[c3fd6fd70c1f956c0aa70d5a42fdf9cf]
class encounter--><g id="elem_encounter"><rect codeLine="8" fill="#F1F1F1" height="42.7031" id="encounter" rx="2.5" ry="2.5" style="stroke:#181818;stroke-width:0.5;" width="272" x="60.5" y="359"/><ellipse cx="75.5" cy="380.3516" fill="#ADD1B2" rx="11" ry="11" style="stroke:#181818;stroke-width:1.0;"/><path d="M78.2656,376.2266 Q78.4219,376.0078 78.6094,375.8984 Q78.7969,375.7891 79.0156,375.7891 Q79.3906,375.7891 79.625,376.0469 Q79.8594,376.3047 79.8594,376.9141 L79.8594,378.3672 Q79.8594,378.9766 79.625,379.2422 Q79.3906,379.5078 79.0156,379.5078 Q78.6719,379.5078 78.4688,379.3047 Q78.2656,379.1172 78.1563,378.6016 Q78.1094,378.2422 77.9219,378.0547 Q77.5938,377.6797 76.9844,377.4609 Q76.375,377.2422 75.75,377.2422 Q74.9844,377.2422 74.3516,377.5703 Q73.7188,377.8984 73.2266,378.6484 Q72.7344,379.3984 72.7344,380.4297 L72.7344,381.5234 Q72.7344,382.7578 73.625,383.5781 Q74.5156,384.3984 76.1094,384.3984 Q77.0469,384.3984 77.7031,384.1484 Q78.0938,383.9922 78.5156,383.5547 Q78.7813,383.2891 78.9297,383.2109 Q79.0781,383.1328 79.2813,383.1328 Q79.6094,383.1328 79.8672,383.3906 Q80.125,383.6484 80.125,383.9922 Q80.125,384.3359 79.7813,384.7422 Q79.2813,385.3203 78.4844,385.6484 Q77.4063,386.1016 76.1094,386.1016 Q74.5938,386.1016 73.3906,385.4766 Q72.4063,384.9766 71.7188,383.9063 Q71.0313,382.8359 71.0313,381.5547 L71.0313,380.3984 Q71.0313,379.0703 71.6484,377.9219 Q72.2656,376.7734 73.3594,376.1563 Q74.4531,375.5391 75.6875,375.5391 Q76.4219,375.5391 77.0703,375.7031 Q77.7188,375.8672 78.2656,376.2266 Z " fill="#000000"/><text fill="#000000" font-family="sans-serif" font-size="12" font-style="italic" lengthAdjust="spacing" textLength="147" x="136" y="376.457">«MedComCoreEncounter»</text><text fill="#000000" font-family="sans-serif" font-size="14" lengthAdjust="spacing" textLength="240" x="89.5" y="393.627">MedComHospitalNotificationEncounter</text></g><!--MD5=[134450525739527685064faa304c6b67]
class provenance--><g id="elem_provenance"><rect codeLine="9" fill="#F1F1F1" height="32" id="provenance" rx="2.5" ry="2.5" style="stroke:#181818;stroke-width:0.5;" width="232" x="362.5" y="128"/><ellipse cx="377.5" cy="144" fill="#ADD1B2" rx="11" ry="11" style="stroke:#181818;stroke-width:1.0;"/><path d="M380.2656,139.875 Q380.4219,139.6563 380.6094,139.5469 Q380.7969,139.4375 381.0156,139.4375 Q381.3906,139.4375 381.625,139.6953 Q381.8594,139.9531 381.8594,140.5625 L381.8594,142.0156 Q381.8594,142.625 381.625,142.8906 Q381.3906,143.1563 381.0156,143.1563 Q380.6719,143.1563 380.4688,142.9531 Q380.2656,142.7656 380.1563,142.25 Q380.1094,141.8906 379.9219,141.7031 Q379.5938,141.3281 378.9844,141.1094 Q378.375,140.8906 377.75,140.8906 Q376.9844,140.8906 376.3516,141.2188 Q375.7188,141.5469 375.2266,142.2969 Q374.7344,143.0469 374.7344,144.0781 L374.7344,145.1719 Q374.7344,146.4063 375.625,147.2266 Q376.5156,148.0469 378.1094,148.0469 Q379.0469,148.0469 379.7031,147.7969 Q380.0938,147.6406 380.5156,147.2031 Q380.7813,146.9375 380.9297,146.8594 Q381.0781,146.7813 381.2813,146.7813 Q381.6094,146.7813 381.8672,147.0391 Q382.125,147.2969 382.125,147.6406 Q382.125,147.9844 381.7813,148.3906 Q381.2813,148.9688 380.4844,149.2969 Q379.4063,149.75 378.1094,149.75 Q376.5938,149.75 375.3906,149.125 Q374.4063,148.625 373.7188,147.5547 Q373.0313,146.4844 373.0313,145.2031 L373.0313,144.0469 Q373.0313,142.7188 373.6484,141.5703 Q374.2656,140.4219 375.3594,139.8047 Q376.4531,139.1875 377.6875,139.1875 Q378.4219,139.1875 379.0703,139.3516 Q379.7188,139.5156 380.2656,139.875 Z " fill="#000000"/><text fill="#000000" font-family="sans-serif" font-size="14" lengthAdjust="spacing" textLength="200" x="391.5" y="149.7285">MedComMessagingProvenance</text></g><!--MD5=[9aa2d8b1be83e7388577d75f2a942206]
class serviceProvider--><g id="elem_serviceProvider"><rect codeLine="10" fill="#F1F1F1" height="32" id="serviceProvider" rx="2.5" ry="2.5" style="stroke:#181818;stroke-width:0.5;" width="199" x="205" y="480"/><ellipse cx="220" cy="496" fill="#ADD1B2" rx="11" ry="11" style="stroke:#181818;stroke-width:1.0;"/><path d="M222.7656,491.875 Q222.9219,491.6563 223.1094,491.5469 Q223.2969,491.4375 223.5156,491.4375 Q223.8906,491.4375 224.125,491.6953 Q224.3594,491.9531 224.3594,492.5625 L224.3594,494.0156 Q224.3594,494.625 224.125,494.8906 Q223.8906,495.1563 223.5156,495.1563 Q223.1719,495.1563 222.9688,494.9531 Q222.7656,494.7656 222.6563,494.25 Q222.6094,493.8906 222.4219,493.7031 Q222.0938,493.3281 221.4844,493.1094 Q220.875,492.8906 220.25,492.8906 Q219.4844,492.8906 218.8516,493.2188 Q218.2188,493.5469 217.7266,494.2969 Q217.2344,495.0469 217.2344,496.0781 L217.2344,497.1719 Q217.2344,498.4063 218.125,499.2266 Q219.0156,500.0469 220.6094,500.0469 Q221.5469,500.0469 222.2031,499.7969 Q222.5938,499.6406 223.0156,499.2031 Q223.2813,498.9375 223.4297,498.8594 Q223.5781,498.7813 223.7813,498.7813 Q224.1094,498.7813 224.3672,499.0391 Q224.625,499.2969 224.625,499.6406 Q224.625,499.9844 224.2813,500.3906 Q223.7813,500.9688 222.9844,501.2969 Q221.9063,501.75 220.6094,501.75 Q219.0938,501.75 217.8906,501.125 Q216.9063,500.625 216.2188,499.5547 Q215.5313,498.4844 215.5313,497.2031 L215.5313,496.0469 Q215.5313,494.7188 216.1484,493.5703 Q216.7656,492.4219 217.8594,491.8047 Q218.9531,491.1875 220.1875,491.1875 Q220.9219,491.1875 221.5703,491.3516 Q222.2188,491.5156 222.7656,491.875 Z " fill="#000000"/><text fill="#000000" font-family="sans-serif" font-size="14" lengthAdjust="spacing" textLength="167" x="234" y="501.7285">MedComCoreOrganization</text></g><!--MD5=[fffb7fd05b1ac69401eabd1063be1169]
link message to messageHeader--><g id="link_message_messageHeader"><path codeLine="12" d="M322.88,50.23 C317.56,92.21 305.53,187.17 299.74,232.92 " fill="none" id="message-to-messageHeader" style="stroke:#181818;stroke-width:1.0;"/><polygon fill="#181818" points="299.1,237.99,304.2004,229.5647,299.729,233.0297,296.2639,228.5583,299.1,237.99" style="stroke:#181818;stroke-width:1.0;"/><text fill="#000000" font-family="sans-serif" font-size="13" lengthAdjust="spacing" textLength="29" x="313.5" y="149.4951">entry</text></g><!--MD5=[6027060c45d81892b33fac66f44bd9f1]
link messageHeader to encounter--><g id="link_messageHeader_encounter"><path codeLine="13" d="M279.08,281.23 C261.91,301.66 235.65,332.91 217.37,354.66 " fill="none" id="messageHeader-to-encounter" style="stroke:#181818;stroke-width:1.0;"/><polygon fill="#181818" points="214.05,358.61,222.9004,354.2891,217.265,354.7806,216.7734,349.1452,214.05,358.61" style="stroke:#181818;stroke-width:1.0;"/><text fill="#000000" font-family="sans-serif" font-size="13" lengthAdjust="spacing" textLength="31" x="252.5" y="325.4951">focus</text></g><!--MD5=[2d55e5f0f8636025baba599069dca0b3]
link encounter to patient--><g id="link_encounter_patient"><path codeLine="14" d="M176.94,402.05 C156.91,423.1 126.04,455.55 106.57,476.01 " fill="none" id="encounter-to-patient" style="stroke:#181818;stroke-width:1.0;"/><polygon fill="#181818" points="103.07,479.69,112.1738,475.9323,106.5186,476.0697,106.3813,470.4145,103.07,479.69" style="stroke:#181818;stroke-width:1.0;"/><text fill="#000000" font-family="sans-serif" font-size="13" lengthAdjust="spacing" textLength="42" x="147.5" y="446.4951">subject</text></g><!--MD5=[3410e7a3c219c1b2b4fcec408cc49989]
link encounter to serviceProvider--><g id="link_encounter_serviceProvider"><path codeLine="15" d="M216.06,402.05 C236.09,423.1 266.96,455.55 286.43,476.01 " fill="none" id="encounter-to-serviceProvider" style="stroke:#181818;stroke-width:1.0;"/><polygon fill="#181818" points="289.93,479.69,286.6187,470.4145,286.4814,476.0697,280.8262,475.9323,289.93,479.69" style="stroke:#181818;stroke-width:1.0;"/><text fill="#000000" font-family="sans-serif" font-size="13" lengthAdjust="spacing" textLength="88" x="260.5" y="446.4951">service provider</text></g><!--MD5=[81f298224060e516a9ea14ff98c71ca4]
link message to provenance--><g id="link_message_provenance"><path codeLine="16" d="M353.21,50.05 C381.82,71.28 426.05,104.09 453.59,124.52 " fill="none" id="message-to-provenance" style="stroke:#181818;stroke-width:1.0;"/><polygon fill="#181818" points="457.86,127.69,453.0257,119.1093,453.848,124.706,448.2513,125.5284,457.86,127.69" style="stroke:#181818;stroke-width:1.0;"/><text fill="#000000" font-family="sans-serif" font-size="13" lengthAdjust="spacing" textLength="29" x="416.5" y="94.4951">entry</text></g><!--MD5=[a864ff11b7a0255841c7b26aa9aedee8]
link provenance to messageHeader--><g id="link_provenance_messageHeader"><path codeLine="17" d="M454.33,160.07 C423.48,179.31 369.8,212.79 333.71,235.29 " fill="none" id="provenance-to-messageHeader" style="stroke:#181818;stroke-width:1.0;"/><polygon fill="#181818" points="329.4,237.98,339.1541,236.6168,333.644,235.3364,334.9243,229.8264,329.4,237.98" style="stroke:#181818;stroke-width:1.0;"/><text fill="#000000" font-family="sans-serif" font-size="13" lengthAdjust="spacing" textLength="33" x="404.5" y="204.4951">target</text></g><!--MD5=[df78789b268a0a149f5d23d4e89f3481]
link provenance to organization--><g id="link_provenance_organization"><path codeLine="18" d="M478.95,160.03 C480.12,199.14 483.26,304.47 484.73,353.6 " fill="none" id="provenance-to-organization" style="stroke:#181818;stroke-width:1.0;"/><polygon fill="#181818" points="484.88,358.74,488.5953,349.6188,484.7229,353.7425,480.5993,349.8701,484.88,358.74" style="stroke:#181818;stroke-width:1.0;"/><text fill="#000000" font-family="sans-serif" font-size="13" lengthAdjust="spacing" textLength="59" x="482.5" y="264.9951">agent.who</text></g><!--MD5=[746a33207db6e799502ef4ecf0370aea]
link messageHeader to organization--><g id="link_messageHeader_organization"><path codeLine="20" d="M344.57,281.07 C362.6,289.49 382.96,299.87 400.5,311 C421.16,324.1 442.59,341.4 458.77,355.34 " fill="none" id="messageHeader-to-organization" style="stroke:#181818;stroke-width:1.0;"/><polygon fill="#181818" points="462.76,358.81,458.5824,349.8911,458.983,355.5337,453.3403,355.9343,462.76,358.81" style="stroke:#181818;stroke-width:1.0;"/><text fill="#000000" font-family="sans-serif" font-size="13" lengthAdjust="spacing" textLength="39" x="425.5" y="325.4951">sender</text></g><!--MD5=[746a33207db6e799502ef4ecf0370aea]
link messageHeader to organization--><g id="link_messageHeader_organization"><path codeLine="21" d="M307.1,281.05 C315.85,296.18 329.55,316.26 346.5,329 C362.11,340.73 380.72,349.95 399.16,357.11 " fill="none" id="messageHeader-to-organization-1" style="stroke:#181818;stroke-width:1.0;"/><polygon fill="#181818" points="403.84,358.89,396.843,351.9588,399.1648,357.1172,394.0065,359.439,403.84,358.89" style="stroke:#181818;stroke-width:1.0;"/><text fill="#000000" font-family="sans-serif" font-size="13" lengthAdjust="spacing" textLength="44" x="347.5" y="325.4951">receiver</text></g><!--MD5=[7f0c1ece5ec025c288b9ddafe47e341d]
@startuml HospitalNotification

hide empty members

class "MedComHospitalNotificationMessage" as message <<MedComMessagingMessage>>
class "MedComHospitalNotificationMessageHeader" as messageHeader <<MedComMessagingMessageHeader>>
class "MedComMessagingOrganization" as organization <<MedComCoreOrganization>>
class "MedComCorePatient" as patient
class "MedComHospitalNotificationEncounter" as encounter <<MedComCoreEncounter>>
class "MedComMessagingProvenance" as provenance
class "MedComCoreOrganization" as serviceProvider

message - -> messageHeader : "entry"
messageHeader - -> encounter : "focus"
encounter - -> patient : "subject"
encounter - -> serviceProvider : "service provider"
message - -> provenance : "entry"
provenance - -> messageHeader : "target"
provenance - -> organization : "agent.who"

messageHeader - -> organization : "sender"
messageHeader - -> organization : "receiver"

@enduml

PlantUML version 1.2022.7(Mon Aug 22 19:01:30 CEST 2022)
(GPL source distribution)
Java Runtime: Java(TM) SE Runtime Environment
JVM: Java HotSpot(TM) 64-Bit Server VM
Default Encoding: Cp1252
Language: da
Country: DK
--></g></svg>