<svg width="3634" height="1648" xmlns="http://www.w3.org/2000/svg" xmlns:xlink="http://www.w3.org/1999/xlink" xml:space="preserve" overflow="hidden"><defs><clipPath id="clip0"><rect x="361" y="506" width="3634" height="1648"/></clipPath><clipPath id="clip1"><rect x="1147" y="920" width="146" height="151"/></clipPath><clipPath id="clip2"><rect x="1147" y="920" width="146" height="151"/></clipPath><clipPath id="clip3"><rect x="1147" y="920" width="146" height="151"/></clipPath><clipPath id="clip4"><rect x="3136" y="1469" width="117" height="120"/></clipPath><clipPath id="clip5"><rect x="3136" y="1469" width="117" height="120"/></clipPath><clipPath id="clip6"><rect x="3136" y="1469" width="117" height="120"/></clipPath><clipPath id="clip7"><rect x="2913" y="1401" width="405" height="410"/></clipPath><clipPath id="clip8"><rect x="2913" y="1401" width="405" height="410"/></clipPath><clipPath id="clip9"><rect x="2913" y="1401" width="405" height="410"/></clipPath><clipPath id="clip10"><rect x="2955" y="1554" width="109" height="118"/></clipPath><clipPath id="clip11"><rect x="2955" y="1554" width="109" height="118"/></clipPath><clipPath id="clip12"><rect x="2955" y="1554" width="109" height="118"/></clipPath><clipPath id="clip13"><rect x="2143" y="1417" width="405" height="396"/></clipPath><clipPath id="clip14"><rect x="2143" y="1417" width="405" height="396"/></clipPath><clipPath id="clip15"><rect x="2143" y="1417" width="405" height="396"/></clipPath><clipPath id="clip16"><rect x="2358" y="1501" width="109" height="105"/></clipPath><clipPath id="clip17"><rect x="2358" y="1501" width="109" height="105"/></clipPath><clipPath id="clip18"><rect x="2358" y="1501" width="109" height="105"/></clipPath><clipPath id="clip19"><rect x="2193" y="1570" width="109" height="116"/></clipPath><clipPath id="clip20"><rect x="2193" y="1570" width="109" height="116"/></clipPath><clipPath id="clip21"><rect x="2193" y="1570" width="109" height="116"/></clipPath><clipPath id="clip22"><rect x="2097" y="566" width="439" height="440"/></clipPath><clipPath id="clip23"><rect x="2097" y="566" width="439" height="440"/></clipPath><clipPath id="clip24"><rect x="2097" y="566" width="439" height="440"/></clipPath><clipPath id="clip25"><rect x="2700" y="611" width="379" height="381"/></clipPath><clipPath id="clip26"><rect x="2700" y="611" width="379" height="381"/></clipPath><clipPath id="clip27"><rect x="2700" y="611" width="379" height="381"/></clipPath><clipPath id="clip28"><rect x="3523" y="1377" width="473" height="474"/></clipPath><clipPath id="clip29"><rect x="3523" y="1377" width="473" height="474"/></clipPath><clipPath id="clip30"><rect x="3523" y="1377" width="473" height="474"/></clipPath><clipPath id="clip31"><rect x="360" y="885" width="384" height="385"/></clipPath><clipPath id="clip32"><rect x="360" y="885" width="384" height="385"/></clipPath><clipPath id="clip33"><rect x="360" y="885" width="384" height="385"/></clipPath></defs><g clip-path="url(#clip0)" transform="translate(-361 -506)"><g clip-path="url(#clip1)"><g clip-path="url(#clip2)"><g clip-path="url(#clip3)"><path d="M75.5209 49.8438C75.5209 51.5121 74.1684 52.8646 72.5 52.8646 70.8317 52.8646 69.4792 51.5121 69.4792 49.8438 69.4792 48.1754 70.8317 46.8229 72.5 46.8229 74.1684 46.8229 75.5209 48.1754 75.5209 49.8438Z" transform="matrix(1 0 0 1.02759 1147 921)"/><path d="M75.5209 110.26C75.5209 111.929 74.1684 113.281 72.5 113.281 70.8317 113.281 69.4792 111.929 69.4792 110.26 69.4792 108.592 70.8317 107.24 72.5 107.24 74.1684 107.24 75.5209 108.592 75.5209 110.26Z" transform="matrix(1 0 0 1.02759 1147 921)"/><path d="M105.729 78.5417C105.729 80.2101 104.377 81.5625 102.708 81.5625 101.04 81.5625 99.6875 80.2101 99.6875 78.5417 99.6875 76.8733 101.04 75.5209 102.708 75.5209 104.377 75.5209 105.729 76.8733 105.729 78.5417Z" transform="matrix(1 0 0 1.02759 1147 921)"/><path d="M45.3125 78.5417C45.3125 80.2101 43.96 81.5625 42.2917 81.5625 40.6233 81.5625 39.2709 80.2101 39.2709 78.5417 39.2709 76.8733 40.6233 75.5209 42.2917 75.5209 43.96 75.5209 45.3125 76.8733 45.3125 78.5417Z" transform="matrix(1 0 0 1.02759 1147 921)"/><path d="M75.5209 57.3959 69.4792 57.3959 69.4792 78.5417C69.4792 79.2969 69.7813 80.0521 70.3854 80.6563L85.3386 95.6094 89.5677 91.3802 75.5209 77.3334 75.5209 57.3959Z" transform="matrix(1 0 0 1.02759 1147 921)"/><path d="M72.5 122.344C49.0886 122.344 30.2083 103.464 30.2083 80.0521 30.2083 56.6407 49.0886 37.7604 72.5 37.7604 95.9115 37.7604 114.792 56.6407 114.792 80.0521 114.792 103.464 95.9115 122.344 72.5 122.344L72.5 122.344ZM108.297 43.1979 112.828 38.6667C114.49 36.8542 114.49 34.1354 112.677 32.3229 111.016 30.6615 108.146 30.5104 106.333 32.1719L101.198 37.4583C93.948 32.625 85.6407 29.6042 77.0313 29L77.0313 22.6563 90.625 22.6563 90.625 13.5938 54.375 13.5938 54.375 22.6563 67.9688 22.6563 67.9688 28.849C43.9531 30.9636 24.6198 49.5417 21.599 73.5573 18.5781 97.573 32.625 120.38 55.4323 128.385 78.2396 136.391 103.464 127.63 116.302 107.089 129.141 86.5469 125.516 59.9636 108.297 43.1979L108.297 43.1979Z" transform="matrix(1 0 0 1.02759 1147 921)"/></g></g></g><path d="M1342.33 1026.42C1329.63 1031.56 1317.93 1038.4 1307.23 1046.95 1299.87 1053.11 1295.19 1062.35 1294.86 1072.27L1289.18 1122.92C1288.17 1130.44 1291.52 1137.97 1297.53 1142.08 1303.55 1146.18 1309.9 1149.26 1316.59 1152L1319.6 1152 1319.6 1138.66C1314.58 1136.6 1309.57 1133.87 1304.89 1130.79 1302.88 1129.42 1301.88 1127.02 1302.22 1124.63L1308.23 1073.3 1308.23 1072.62C1308.57 1066.46 1311.24 1060.98 1315.92 1057.22 1324.95 1049.35 1337.99 1042.16 1356.04 1035.32 1366.07 1041.48 1381.45 1045.24 1398.5 1045.24 1415.55 1045.24 1430.93 1041.48 1440.96 1035.32 1459.35 1042.16 1472.05 1049.35 1481.08 1057.22 1485.76 1060.98 1488.43 1066.8 1488.77 1072.62L1494.79 1124.28C1495.12 1126.68 1494.12 1129.07 1492.11 1130.44L1492.11 1130.44C1487.43 1133.52 1482.75 1136.26 1477.4 1138.31L1477.4 1151.66 1480.41 1151.66C1487.1 1149.26 1493.45 1145.84 1499.47 1141.74L1499.47 1141.74C1505.48 1137.29 1508.83 1130.1 1507.82 1122.57L1502.14 1072.27C1501.81 1062.35 1497.13 1053.11 1489.77 1046.95 1479.07 1038.4 1467.37 1031.21 1454.67 1026.42 1454.67 1008.97 1455.34 961.068 1455.34 941.565 1455.34 936.09 1454.67 930.615 1453.33 925.14 1448.98 908.716 1437.95 895.029 1423.24 887.159 1421.9 886.475 1419.9 886.475 1418.89 887.501L1415.89 889.897 1412.54 885.106C1411.54 883.395 1409.87 882.369 1408.2 882.027 1404.85 881.342 1401.84 881 1398.5 881 1385.13 881 1371.75 886.133 1361.72 895.029 1349.02 906.663 1342 923.087 1342.33 940.538L1342.33 1026.42ZM1359.05 970.649 1361.39 942.591 1435.28 942.591 1437.62 970.649C1433.6 992.891 1412.88 1007.6 1390.81 1003.5 1374.76 1000.42 1362.06 987.416 1359.05 970.649ZM1372.42 1027.79C1376.1 1024.71 1378.44 1019.58 1378.44 1014.45L1378.44 1013.76C1391.15 1019.24 1405.86 1019.24 1418.56 1013.76L1418.56 1014.45C1418.56 1019.58 1420.9 1024.37 1424.58 1027.79 1416.22 1030.53 1407.19 1031.56 1398.5 1031.56 1389.81 1031.56 1380.78 1030.53 1372.42 1027.79Z" fill-rule="evenodd"/><path d="M1470.58 1106.57C1470.58 1101.77 1466.9 1098 1462.22 1098L1462.22 1098 1334.78 1098C1330.1 1098 1326.42 1101.77 1326.42 1106.57L1326.42 1106.57 1326.42 1191.97 1301 1191.97 1301 1196.43C1301 1201.23 1304.68 1205 1309.36 1205L1487.64 1205C1492.32 1205 1496 1201.23 1496 1196.43L1496 1191.97 1470.58 1191.97 1470.58 1106.57ZM1380.94 1163.16 1376.26 1167.96 1357.53 1148.76 1376.26 1129.55 1380.94 1134.35 1366.89 1148.76 1380.94 1163.16ZM1393.65 1170.36 1387.63 1167.62 1403.35 1128.87 1409.37 1131.61 1393.65 1170.36ZM1420.41 1168.3 1415.73 1163.5 1429.77 1149.1 1415.73 1134.7 1420.41 1129.89 1439.14 1149.1 1420.41 1168.3Z" fill-rule="evenodd"/><path d="M1382.5 1059.75 1390.75 1059.75 1390.75 1051.5 1407.25 1051.5 1407.25 1059.75 1415.5 1059.75 1415.5 1080.25 1407.25 1080.25 1407.25 1088.5 1390.75 1088.5 1390.75 1080.25 1382.5 1080.25Z" stroke="#FF0000" stroke-width="4.58333" stroke-miterlimit="8" fill="#FF0000" fill-rule="evenodd"/><path d="M1331.5 1116.67C1331.5 1108.29 1338.29 1101.5 1346.67 1101.5L1451.33 1101.5C1459.71 1101.5 1466.5 1108.29 1466.5 1116.67L1466.5 1177.33C1466.5 1185.71 1459.71 1192.5 1451.33 1192.5L1346.67 1192.5C1338.29 1192.5 1331.5 1185.71 1331.5 1177.33Z" stroke="#000000" stroke-width="4.58333" stroke-miterlimit="8" fill-rule="evenodd"/><g clip-path="url(#clip4)"><g clip-path="url(#clip5)"><g clip-path="url(#clip6)"><path d="M9.74999 24.375 9.74999 92.6249 107.25 92.6249 107.25 24.375 9.74999 24.375ZM60.2062 66.9093C59.2312 67.8843 57.7687 67.8843 56.7937 66.9093L20.7187 31.6875 96.403 31.6875 60.2062 66.9093ZM40.8281 58.1343 17.0625 82.0218 17.0625 34.8562 40.8281 58.1343ZM44.3625 61.5468 53.5031 70.4437C54.9656 71.7843 56.7937 72.5155 58.6218 72.5155 60.4499 72.5155 62.2781 71.7843 63.7406 70.4437L72.8812 61.5468 96.5249 85.3124 20.5969 85.3124 44.3625 61.5468ZM76.1718 58.1343 99.9374 34.9781 99.9374 81.8999 76.1718 58.1343Z" transform="matrix(1 0 0 1.00855 3136 1470)"/></g></g></g><g clip-path="url(#clip7)"><g clip-path="url(#clip8)"><g clip-path="url(#clip9)"><path d="M345.083 269.333 58.9167 269.333 58.9167 84.1666 345.083 84.1666 345.083 269.333ZM353.5 58.9167 50.5 58.9167C41.2417 58.9167 33.6667 66.4917 33.6667 75.75L33.6667 277.75C33.6667 287.008 41.2417 294.583 50.5 294.583L168.333 294.583 168.333 319.833 126.25 319.833 126.25 345.083 277.75 345.083 277.75 319.833 235.667 319.833 235.667 294.583 353.5 294.583C362.758 294.583 370.333 287.008 370.333 277.75L370.333 75.75C370.333 66.4917 362.758 58.9167 353.5 58.9167Z" transform="matrix(1 0 0 1.01485 2914 1401)"/></g></g></g><g clip-path="url(#clip10)"><g clip-path="url(#clip11)"><g clip-path="url(#clip12)"><path d="M56.25 37.125C56.25 38.3676 55.2426 39.375 54 39.375 52.7573 39.375 51.75 38.3676 51.75 37.125 51.75 35.8823 52.7573 34.875 54 34.875 55.2426 34.875 56.25 35.8823 56.25 37.125Z" transform="matrix(1 0 0 1.09259 2956 1554)"/><path d="M56.25 82.1249C56.25 83.3676 55.2426 84.3749 54 84.3749 52.7573 84.3749 51.75 83.3676 51.75 82.1249 51.75 80.8823 52.7573 79.8749 54 79.8749 55.2426 79.8749 56.25 80.8823 56.25 82.1249Z" transform="matrix(1 0 0 1.09259 2956 1554)"/><path d="M78.7499 58.5C78.7499 59.7426 77.7426 60.75 76.5 60.75 75.2573 60.75 74.25 59.7426 74.25 58.5 74.25 57.2573 75.2573 56.25 76.5 56.25 77.7426 56.25 78.7499 57.2573 78.7499 58.5Z" transform="matrix(1 0 0 1.09259 2956 1554)"/><path d="M33.75 58.5C33.75 59.7426 32.7426 60.75 31.5 60.75 30.2573 60.75 29.25 59.7426 29.25 58.5 29.25 57.2573 30.2573 56.25 31.5 56.25 32.7426 56.25 33.75 57.2573 33.75 58.5Z" transform="matrix(1 0 0 1.09259 2956 1554)"/><path d="M56.25 42.75 51.75 42.75 51.75 58.5C51.75 59.0625 51.975 59.625 52.425 60.075L63.5625 71.2125 66.7125 68.0625 56.25 57.6 56.25 42.75Z" transform="matrix(1 0 0 1.09259 2956 1554)"/><path d="M54 91.1249C36.5625 91.1249 22.5 77.0625 22.5 59.625 22.5 42.1875 36.5625 28.125 54 28.125 71.4375 28.125 85.4999 42.1875 85.4999 59.625 85.4999 77.0625 71.4375 91.1249 54 91.1249L54 91.1249ZM80.6624 32.175 84.0374 28.8C85.2749 27.45 85.2749 25.425 83.9249 24.075 82.6874 22.8375 80.5499 22.725 79.2 23.9625L75.375 27.9C69.975 24.3 63.7875 22.05 57.375 21.6L57.375 16.875 67.5 16.875 67.5 10.125 40.5 10.125 40.5 16.875 50.625 16.875 50.625 21.4875C32.7375 23.0625 18.3375 36.9 16.0875 54.7875 13.8375 72.6749 24.3 89.6624 41.2875 95.6249 58.275 101.587 77.0625 95.0624 86.6249 79.7625 96.1874 64.4625 93.4874 44.6625 80.6624 32.175L80.6624 32.175Z" transform="matrix(1 0 0 1.09259 2956 1554)"/></g></g></g><g clip-path="url(#clip13)"><g clip-path="url(#clip14)"><g clip-path="url(#clip15)"><path d="M337.396 263.333 57.6042 263.333 57.6042 82.2917 337.396 82.2917 337.396 263.333ZM345.625 57.6042 49.375 57.6042C40.3229 57.6042 32.9167 65.0104 32.9167 74.0625L32.9167 271.562C32.9167 280.615 40.3229 288.021 49.375 288.021L164.583 288.021 164.583 312.708 123.437 312.708 123.437 337.396 271.562 337.396 271.562 312.708 230.417 312.708 230.417 288.021 345.625 288.021C354.677 288.021 362.083 280.615 362.083 271.562L362.083 74.0625C362.083 65.0104 354.677 57.6042 345.625 57.6042Z" transform="matrix(1.02278 0 0 1 2144 1418)"/></g></g></g><g clip-path="url(#clip16)"><g clip-path="url(#clip17)"><g clip-path="url(#clip18)"><path d="M38.1718 28.4375 66.6093 28.4375 66.6093 32.8125 38.1718 32.8125Z" transform="matrix(1.02857 0 0 1 2358 1501)"/><path d="M38.1718 37.1874 66.6093 37.1874 66.6093 41.5624 38.1718 41.5624Z" transform="matrix(1.02857 0 0 1 2358 1501)"/><path d="M38.1718 45.9374 66.6093 45.9374 66.6093 50.3124 38.1718 50.3124Z" transform="matrix(1.02857 0 0 1 2358 1501)"/><path d="M90.7811 91.4374 68.9061 70.6561 90.7811 49.8749 90.7811 91.4374ZM19.9062 94.0624 41.5624 73.6093 43.0937 72.1874C48.9999 66.6093 58.2968 66.6093 64.203 72.1874L65.7343 73.6093 87.2811 94.0624 19.9062 94.0624ZM16.4062 49.7655 38.2812 70.5468 16.4062 91.328 16.4062 49.7655ZM31.7187 21.875 75.4686 21.875 75.4686 58.2968 65.6249 67.703C58.5155 62.2343 48.6718 62.2343 41.5624 67.703L31.7187 58.2968 31.7187 21.875ZM82.0311 24.8281 82.0311 15.3125 66.7187 15.3125 53.5937 4.37499 40.4687 15.3125 25.1562 15.3125 25.1562 24.9375 9.84373 39.4843 9.84373 100.625 97.3436 100.625 97.3436 39.4843 82.0311 24.8281Z" transform="matrix(1.02857 0 0 1 2358 1501)"/></g></g></g><g clip-path="url(#clip19)"><g clip-path="url(#clip20)"><g clip-path="url(#clip21)"><path d="M56.25 37.125C56.25 38.3676 55.2426 39.375 54 39.375 52.7573 39.375 51.75 38.3676 51.75 37.125 51.75 35.8823 52.7573 34.875 54 34.875 55.2426 34.875 56.25 35.8823 56.25 37.125Z" transform="matrix(1 0 0 1.05556 2193 1571)"/><path d="M56.25 82.1249C56.25 83.3676 55.2426 84.3749 54 84.3749 52.7573 84.3749 51.75 83.3676 51.75 82.1249 51.75 80.8823 52.7573 79.8749 54 79.8749 55.2426 79.8749 56.25 80.8823 56.25 82.1249Z" transform="matrix(1 0 0 1.05556 2193 1571)"/><path d="M78.7499 58.5C78.7499 59.7426 77.7426 60.75 76.5 60.75 75.2573 60.75 74.25 59.7426 74.25 58.5 74.25 57.2573 75.2573 56.25 76.5 56.25 77.7426 56.25 78.7499 57.2573 78.7499 58.5Z" transform="matrix(1 0 0 1.05556 2193 1571)"/><path d="M33.75 58.5C33.75 59.7426 32.7426 60.75 31.5 60.75 30.2573 60.75 29.25 59.7426 29.25 58.5 29.25 57.2573 30.2573 56.25 31.5 56.25 32.7426 56.25 33.75 57.2573 33.75 58.5Z" transform="matrix(1 0 0 1.05556 2193 1571)"/><path d="M56.25 42.75 51.75 42.75 51.75 58.5C51.75 59.0625 51.975 59.625 52.425 60.075L63.5625 71.2125 66.7125 68.0625 56.25 57.6 56.25 42.75Z" transform="matrix(1 0 0 1.05556 2193 1571)"/><path d="M54 91.1249C36.5625 91.1249 22.5 77.0625 22.5 59.625 22.5 42.1875 36.5625 28.125 54 28.125 71.4375 28.125 85.4999 42.1875 85.4999 59.625 85.4999 77.0625 71.4375 91.1249 54 91.1249L54 91.1249ZM80.6624 32.175 84.0374 28.8C85.2749 27.45 85.2749 25.425 83.9249 24.075 82.6874 22.8375 80.5499 22.725 79.2 23.9625L75.375 27.9C69.975 24.3 63.7875 22.05 57.375 21.6L57.375 16.875 67.5 16.875 67.5 10.125 40.5 10.125 40.5 16.875 50.625 16.875 50.625 21.4875C32.7375 23.0625 18.3375 36.9 16.0875 54.7875 13.8375 72.6749 24.3 89.6624 41.2875 95.6249 58.275 101.587 77.0625 95.0624 86.6249 79.7625 96.1874 64.4625 93.4874 44.6625 80.6624 32.175L80.6624 32.175Z" transform="matrix(1 0 0 1.05556 2193 1571)"/></g></g></g><text fill="#2C415C" font-family="Arial,Arial_MSFontService,sans-serif" font-weight="700" font-size="50" transform="matrix(1 0 0 1 2830.74 1344)">HospitalNotification<tspan font-size="50" x="489.271" y="0">sent</tspan><tspan font-size="50" x="-810.099" y="0">HospitalNotification</tspan><tspan font-size="50" x="-320.828" y="0">created</tspan><tspan fill="#333333" font-weight="400" font-size="46" x="74.1238" y="617">Provenance.recorded</tspan><tspan fill="#333333" font-weight="400" font-size="46" x="47.8931" y="717">Provenance.occuredDateTim</tspan><tspan fill="#333333" font-weight="400" font-size="46" x="330.639" y="772">e</tspan><tspan fill="#333333" font-family="Calibri,Calibri_MSFontService,sans-serif" font-weight="400" font-size="50" x="-658.32" y="586">Bundle.timestamp</tspan><tspan font-size="50" x="-1710.09" y="-607">Onleave</tspan><tspan font-size="50" x="-1500.4" y="-607">start</tspan></text><g clip-path="url(#clip22)"><g clip-path="url(#clip23)"><g clip-path="url(#clip24)"><path d="M273.75 173.375 273.75 159.687 219 104.937 164.25 159.687 164.25 173.375 31.9375 173.375 31.9375 191.625 41.0625 191.625 41.0625 365 396.937 365 396.937 191.625 406.062 191.625 406.062 173.375ZM86.6875 328.5 59.3125 328.5 59.3125 301.125 86.6875 301.125ZM86.6875 282.875 59.3125 282.875 59.3125 255.5 86.6875 255.5ZM86.6875 237.25 59.3125 237.25 59.3125 209.875 86.6875 209.875ZM132.312 328.5 104.937 328.5 104.937 301.125 132.312 301.125ZM132.312 282.875 104.937 282.875 104.937 255.5 132.312 255.5ZM132.312 237.25 104.937 237.25 104.937 209.875 132.312 209.875ZM177.937 328.5 150.562 328.5 150.562 301.125 177.937 301.125ZM177.937 282.875 150.562 282.875 150.562 255.5 177.937 255.5ZM177.937 237.25 150.562 237.25 150.562 209.875 177.937 209.875ZM200.75 346.75 200.75 282.875 237.25 282.875 237.25 346.75ZM250.937 191.077 242.406 205.86 227.532 197.237 227.532 214.437 210.468 214.437 210.468 197.237 195.594 205.86 187.062 191.077 201.982 182.5 187.062 173.922 195.594 159.14 210.468 167.763 210.468 150.562 227.532 150.562 227.532 167.763 242.406 159.14 250.937 173.922 236.018 182.5ZM287.437 328.5 260.062 328.5 260.062 301.125 287.437 301.125ZM287.437 282.875 260.062 282.875 260.062 255.5 287.437 255.5ZM287.437 237.25 260.062 237.25 260.062 209.875 287.437 209.875ZM333.062 328.5 305.687 328.5 305.687 301.125 333.062 301.125ZM333.062 282.875 305.687 282.875 305.687 255.5 333.062 255.5ZM333.062 237.25 305.687 237.25 305.687 209.875 333.062 209.875ZM378.687 328.5 351.312 328.5 351.312 301.125 378.687 301.125ZM378.687 282.875 351.312 282.875 351.312 255.5 378.687 255.5ZM378.687 237.25 351.312 237.25 351.312 209.875 378.687 209.875Z" transform="matrix(1 0 0 1 2098 567)"/><path d="M219 81.3494 285.567 147.871 298.433 135.004 219 55.5256 139.567 135.004 152.433 147.871 219 81.3494Z" transform="matrix(1 0 0 1 2098 567)"/></g></g></g><g clip-path="url(#clip25)"><g clip-path="url(#clip26)"><g clip-path="url(#clip27)"><path d="M270.432 185.552C268.853 185.552 267.669 185.552 266.089 185.947 264.905 181.209 261.747 176.867 256.614 174.893L223.057 161.47 201.344 111.331 201.344 111.331C197.001 99.4874 185.552 90.802 171.734 90.802 164.628 90.802 158.311 93.1708 153.179 96.7239L153.179 96.7239 99.8822 132.65C96.7239 135.019 94.3552 138.177 93.1708 142.125L81.327 193.448C79.3531 202.133 84.4854 210.424 93.1708 212.398 94.3552 212.793 95.5395 212.793 96.7239 212.793 103.83 212.793 110.542 207.66 112.121 200.554L122.385 155.548 132.255 148.836C128.307 175.682 127.912 197.001 127.912 200.554L123.965 269.643 108.568 339.521C106.594 348.206 112.121 356.497 120.411 358.471 121.596 358.865 122.78 358.865 123.965 358.865 131.071 358.865 137.782 353.733 139.361 346.627L155.153 275.564C155.153 274.775 155.548 273.985 155.548 273.196L157.522 234.506 183.183 262.931 186.736 336.362C187.131 344.653 194.237 351.364 202.528 351.364 202.923 351.364 202.923 351.364 203.318 351.364 212.003 350.97 218.714 343.469 218.32 334.783L214.372 255.825C214.372 252.272 212.793 248.719 210.424 245.955L182.788 215.556 182.788 151.6C182.788 151.6 183.183 151.6 183.183 151.205L195.817 180.025C197.396 183.973 200.554 186.736 204.502 188.316L243.586 204.107C242.402 206.871 242.007 210.029 242.007 213.187 242.007 221.873 245.955 229.374 252.272 234.506 252.272 234.506 252.667 234.901 252.667 234.901 253.851 236.085 255.825 236.875 257.799 236.875 262.142 236.875 265.695 233.322 265.695 228.979 265.695 226.215 264.51 223.847 262.536 222.662 260.562 220.294 258.588 217.135 258.588 213.187 258.588 206.476 263.721 201.344 270.432 201.344 277.144 201.344 282.276 206.476 282.276 213.187L282.276 238.059 282.276 248.719 282.276 351.364C282.276 355.707 285.829 359.26 290.172 359.26 294.514 359.26 298.068 355.707 298.068 351.364L298.068 213.187C298.068 197.791 285.829 185.552 270.432 185.552Z" transform="matrix(1 0 0 1 2700 612)"/><path d="M225.031 55.2708C225.031 72.7138 210.891 86.8541 193.448 86.8541 176.005 86.8541 161.865 72.7138 161.865 55.2708 161.865 37.8278 176.005 23.6875 193.448 23.6875 210.891 23.6875 225.031 37.8278 225.031 55.2708Z" transform="matrix(1 0 0 1 2700 612)"/></g></g></g><text fill="#2C415C" font-family="Arial,Arial_MSFontService,sans-serif" font-weight="700" font-size="50" transform="matrix(1 0 0 1 2130.67 571)">Patienten <tspan font-size="50" x="240.625" y="0">onleave</tspan></text><path d="M2557.5 802.062 2717.22 802.063 2717.22 808.938 2557.5 808.937ZM2712.64 791.75 2740.14 805.5 2712.64 819.25Z"/><path d="M2608.5 1669.06 2774.96 1669.06 2774.96 1675.94 2608.5 1675.94ZM2770.37 1658.75 2797.87 1672.5 2770.37 1686.25Z"/><g clip-path="url(#clip28)"><g clip-path="url(#clip29)"><g clip-path="url(#clip30)"><path d="M236 107.183 306.8 178.475 320.567 164.708 236 83.5833 149.467 166.183 163.233 179.95Z" transform="matrix(1 0 0 1.00212 3523 1377)"/><path d="M393.333 284.675 354 284.675 354 245.342 393.333 245.342 393.333 284.675ZM393.333 343.675 354 343.675 354 304.342 393.333 304.342 393.333 343.675ZM334.333 284.675 295 284.675 295 245.342 334.333 245.342 334.333 284.675ZM334.333 343.675 295 343.675 295 304.342 334.333 304.342 334.333 343.675ZM270.417 284.675 201.583 284.675 201.583 265.008 270.417 265.008 270.417 284.675ZM236 191.258C244.358 191.258 250.75 197.65 250.75 206.008 250.75 214.367 244.358 220.758 236 220.758 227.642 220.758 221.25 214.367 221.25 206.008 221.25 197.65 227.642 191.258 236 191.258ZM177 284.675 137.667 284.675 137.667 245.342 177 245.342 177 284.675ZM177 343.675 137.667 343.675 137.667 304.342 177 304.342 177 343.675ZM118 284.675 78.6667 284.675 78.6667 245.342 118 245.342 118 284.675ZM118 343.675 78.6667 343.675 78.6667 304.342 118 304.342 118 343.675ZM295 220.758 295 191.258 236 132.258 177 191.258 177 220.758 59 220.758 59 387.925 201.583 387.925 201.583 333.842C201.583 320.075 211.417 304.342 236 304.342 260.583 304.342 270.417 320.075 270.417 333.842L270.417 387.925 413 387.925 413 220.758 295 220.758Z" transform="matrix(1 0 0 1.00212 3523 1377)"/></g></g></g><path d="M3334.5 1682.06 3500.96 1682.06 3500.96 1688.94 3334.5 1688.94ZM3496.37 1671.75 3523.87 1685.5 3496.37 1699.25Z"/><path d="M2342.15 1779 2342.15 1866.75 2339.85 1866.75 2339.85 1779ZM2354.75 1862.17 2341 1889.67 2327.25 1862.17Z" fill="#2C415C"/><path d="M3117.15 1778 3117.15 1865.75 3114.85 1865.75 3114.85 1778ZM3129.75 1861.17 3116 1888.67 3102.25 1861.17Z" fill="#2C415C"/><path d="M0-3.4375 161.131-3.4375 161.131 314.951 157.694 311.514 292.47 311.514 292.47 318.389 154.256 318.389 154.256 0 157.694 3.4375 0 3.4375ZM287.887 301.201 315.387 314.951 287.887 328.701Z" transform="matrix(1 0 0 -1 1745.5 1146.45)"/><path d="M0-3.4375 639.373-3.4375 639.518 133.123 632.643 133.13 632.502 0.00364477 635.939 3.4375 0 3.4375ZM649.683 128.122 636.786 156.033 622.196 128.969Z" transform="matrix(1.83697e-16 1 1 -1.83697e-16 1901.5 1026.5)"/><g clip-path="url(#clip31)"><g clip-path="url(#clip32)"><g clip-path="url(#clip33)"><path d="M351.083 187.51 167.562 187.51 167.562 283.26C167.589 292.063 174.718 299.192 183.521 299.219L343.104 299.219 343.104 319.167 367.042 319.167 367.042 203.469C367.015 194.666 359.886 187.537 351.083 187.51Z" transform="matrix(1 0 0 1 361 886)"/><path d="M39.8958 139.635C40.0159 133.145 34.852 127.787 28.362 127.667 28.217 127.664 28.072 127.664 27.9271 127.667 21.437 127.547 16.0784 132.71 15.9583 139.201 15.9557 139.345 15.9557 139.491 15.9583 139.635L15.9583 319.167 39.8958 319.167 39.8958 279.271 155.594 279.271 155.594 239.375 39.8958 191.5Z" transform="matrix(1 0 0 1 361 886)"/><path d="M103.242 168.711C103.242 181.932 92.5252 192.649 79.3049 192.649 66.0846 192.649 55.3674 181.932 55.3674 168.711 55.3674 155.491 66.0846 144.774 79.3049 144.774 92.5252 144.774 103.242 155.491 103.242 168.711Z" transform="matrix(1 0 0 1 361 886)"/><path d="M95.7939 202.623 155.594 227.538 155.594 184.319 147.958 181.127C127.617 172.728 104.312 182.332 95.7939 202.623Z" transform="matrix(1 0 0 1 361 886)"/><path d="M295.229 59.8437 207.458 59.8437C203.051 59.8437 199.479 63.416 199.479 67.8229L199.479 130.555C199.479 134.962 203.051 138.534 207.458 138.534L295.229 138.534C299.636 138.534 303.208 134.962 303.208 130.555L303.208 67.8229C303.208 63.416 299.636 59.8437 295.229 59.8437ZM296.131 102.03 282.087 102.03 271.99 113.113C270.752 114.471 268.648 114.568 267.289 113.331 266.838 112.919 266.508 112.391 266.337 111.804L261.362 94.7685 249.369 126.47C248.88 127.766 247.638 128.623 246.253 128.62L245.966 128.62C244.48 128.488 243.265 127.382 242.994 125.915L235.385 85.3252 230.57 99.7396C230.121 101.105 228.848 102.03 227.41 102.034L207.458 102.034 207.458 95.3789 225.012 95.3789 233.123 71.0425C233.714 69.3022 235.604 68.3707 237.343 68.9615 238.478 69.3465 239.318 70.312 239.543 71.4893L247.302 113.041 258.629 83.119C259.277 81.3995 261.197 80.5317 262.916 81.1804 263.895 81.5495 264.643 82.3577 264.936 83.3623L271.056 104.244 278.15 96.4881C278.775 95.7871 279.668 95.3837 280.607 95.3789L296.127 95.3789Z" transform="matrix(1 0 0 1 361 886)"/></g></g></g><path d="M822.5 1143.06 1090.43 1143.06 1090.43 1149.94 822.5 1149.94ZM1085.85 1132.75 1113.35 1146.5 1085.85 1160.25Z"/></g></svg>