<svg width="4252" height="1497" xmlns="http://www.w3.org/2000/svg" xmlns:xlink="http://www.w3.org/1999/xlink" xml:space="preserve" overflow="hidden"><defs><clipPath id="clip0"><rect x="-30" y="522" width="4252" height="1497"/></clipPath><clipPath id="clip1"><rect x="-30" y="816" width="419" height="419"/></clipPath><clipPath id="clip2"><rect x="-30" y="816" width="419" height="419"/></clipPath><clipPath id="clip3"><rect x="-30" y="816" width="419" height="419"/></clipPath><clipPath id="clip4"><rect x="500" y="816" width="419" height="419"/></clipPath><clipPath id="clip5"><rect x="500" y="816" width="419" height="419"/></clipPath><clipPath id="clip6"><rect x="500" y="816" width="419" height="419"/></clipPath><clipPath id="clip7"><rect x="1030" y="874" width="146" height="144"/></clipPath><clipPath id="clip8"><rect x="1030" y="874" width="146" height="144"/></clipPath><clipPath id="clip9"><rect x="1030" y="874" width="146" height="144"/></clipPath><clipPath id="clip10"><rect x="2931" y="1370" width="116" height="120"/></clipPath><clipPath id="clip11"><rect x="2931" y="1370" width="116" height="120"/></clipPath><clipPath id="clip12"><rect x="2931" y="1370" width="116" height="120"/></clipPath><clipPath id="clip13"><rect x="2709" y="1302" width="403" height="410"/></clipPath><clipPath id="clip14"><rect x="2709" y="1302" width="403" height="410"/></clipPath><clipPath id="clip15"><rect x="2709" y="1302" width="403" height="410"/></clipPath><clipPath id="clip16"><rect x="2751" y="1455" width="108" height="118"/></clipPath><clipPath id="clip17"><rect x="2751" y="1455" width="108" height="118"/></clipPath><clipPath id="clip18"><rect x="2751" y="1455" width="108" height="118"/></clipPath><clipPath id="clip19"><rect x="1936" y="1298" width="404" height="394"/></clipPath><clipPath id="clip20"><rect x="1936" y="1298" width="404" height="394"/></clipPath><clipPath id="clip21"><rect x="1936" y="1298" width="404" height="394"/></clipPath><clipPath id="clip22"><rect x="2150" y="1380" width="109" height="105"/></clipPath><clipPath id="clip23"><rect x="2150" y="1380" width="109" height="105"/></clipPath><clipPath id="clip24"><rect x="2150" y="1380" width="109" height="105"/></clipPath><clipPath id="clip25"><rect x="1985" y="1449" width="109" height="117"/></clipPath><clipPath id="clip26"><rect x="1985" y="1449" width="109" height="117"/></clipPath><clipPath id="clip27"><rect x="1985" y="1449" width="109" height="117"/></clipPath><clipPath id="clip28"><rect x="1950" y="620" width="384" height="384"/></clipPath><clipPath id="clip29"><rect x="1950" y="620" width="384" height="384"/></clipPath><clipPath id="clip30"><rect x="1950" y="620" width="384" height="384"/></clipPath><clipPath id="clip31"><rect x="3430" y="1236" width="474" height="473"/></clipPath><clipPath id="clip32"><rect x="3430" y="1236" width="474" height="473"/></clipPath><clipPath id="clip33"><rect x="3430" y="1236" width="474" height="473"/></clipPath></defs><g clip-path="url(#clip0)" transform="translate(30 -522)"><g clip-path="url(#clip1)"><g clip-path="url(#clip2)"><g clip-path="url(#clip3)"><path d="M268.26 1020.65C266.519 1020.65 265.213 1020.65 263.471 1021.08 262.165 1015.86 258.681 1011.07 253.021 1008.89L216.01 994.085 192.063 938.788 192.063 938.788C187.273 925.725 174.646 916.146 159.406 916.146 151.569 916.146 144.602 918.758 138.942 922.677L138.942 922.677 80.1605 962.3C76.6772 964.913 74.0647 968.396 72.7584 972.75L59.6959 1029.35C57.5188 1038.93 63.1793 1048.08 72.7584 1050.25 74.0647 1050.69 75.3709 1050.69 76.6772 1050.69 84.5147 1050.69 91.9168 1045.03 93.6584 1037.19L104.979 987.554 115.865 980.152C111.511 1009.76 111.075 1033.27 111.075 1037.19L106.721 1113.39 89.7397 1190.46C87.5626 1200.04 93.6584 1209.18 102.802 1211.36 104.108 1211.79 105.415 1211.79 106.721 1211.79 114.558 1211.79 121.961 1206.13 123.702 1198.3L141.119 1119.92C141.119 1119.05 141.554 1118.18 141.554 1117.31L143.731 1074.64 172.033 1105.99 175.952 1186.98C176.388 1196.12 184.225 1203.52 193.369 1203.52 193.804 1203.52 193.804 1203.52 194.24 1203.52 203.819 1203.09 211.221 1194.81 210.785 1185.23L206.431 1098.15C206.431 1094.23 204.69 1090.31 202.077 1087.26L171.598 1053.74 171.598 983.2C171.598 983.2 172.033 983.2 172.033 982.765L185.967 1014.55C187.708 1018.9 191.192 1021.95 195.546 1023.69L238.652 1041.11C237.346 1044.16 236.91 1047.64 236.91 1051.12 236.91 1060.7 241.265 1068.98 248.231 1074.64 248.231 1074.64 248.667 1075.07 248.667 1075.07 249.973 1076.38 252.15 1077.25 254.327 1077.25 259.117 1077.25 263.036 1073.33 263.036 1068.54 263.036 1065.49 261.729 1062.88 259.552 1061.58 257.375 1058.96 255.198 1055.48 255.198 1051.12 255.198 1043.72 260.858 1038.06 268.26 1038.06 275.663 1038.06 281.323 1043.72 281.323 1051.12L281.323 1078.56 281.323 1090.31 281.323 1203.52C281.323 1208.31 285.242 1212.23 290.031 1212.23 294.821 1212.23 298.74 1208.31 298.74 1203.52L298.74 1051.12C298.74 1034.14 285.242 1020.65 268.26 1020.65Z"/><path d="M218.188 876.958C218.188 896.196 202.592 911.792 183.354 911.792 164.116 911.792 148.521 896.196 148.521 876.958 148.521 857.72 164.116 842.125 183.354 842.125 202.592 842.125 218.188 857.72 218.188 876.958Z"/></g></g></g><g clip-path="url(#clip4)"><g clip-path="url(#clip5)"><g clip-path="url(#clip6)"><path d="M762.25 981.458 762.25 968.396 710 916.146 657.75 968.396 657.75 981.458 531.479 981.458 531.479 998.875 540.187 998.875 540.187 1164.33 879.812 1164.33 879.812 998.875 888.521 998.875 888.521 981.458ZM583.729 1129.5 557.604 1129.5 557.604 1103.38 583.729 1103.38ZM583.729 1085.96 557.604 1085.96 557.604 1059.83 583.729 1059.83ZM583.729 1042.42 557.604 1042.42 557.604 1016.29 583.729 1016.29ZM627.271 1129.5 601.146 1129.5 601.146 1103.38 627.271 1103.38ZM627.271 1085.96 601.146 1085.96 601.146 1059.83 627.271 1059.83ZM627.271 1042.42 601.146 1042.42 601.146 1016.29 627.271 1016.29ZM670.812 1129.5 644.687 1129.5 644.687 1103.38 670.812 1103.38ZM670.812 1085.96 644.687 1085.96 644.687 1059.83 670.812 1059.83ZM670.812 1042.42 644.687 1042.42 644.687 1016.29 670.812 1016.29ZM692.583 1146.92 692.583 1085.96 727.417 1085.96 727.417 1146.92ZM740.479 998.353 732.337 1012.46 718.142 1004.23 718.142 1020.65 701.858 1020.65 701.858 1004.23 687.663 1012.46 679.521 998.353 693.759 990.167 679.521 981.981 687.663 967.873 701.858 976.103 701.858 959.688 718.142 959.688 718.142 976.103 732.337 967.873 740.479 981.981 726.241 990.167ZM775.312 1129.5 749.187 1129.5 749.187 1103.38 775.312 1103.38ZM775.312 1085.96 749.187 1085.96 749.187 1059.83 775.312 1059.83ZM775.312 1042.42 749.187 1042.42 749.187 1016.29 775.312 1016.29ZM818.854 1129.5 792.729 1129.5 792.729 1103.38 818.854 1103.38ZM818.854 1085.96 792.729 1085.96 792.729 1059.83 818.854 1059.83ZM818.854 1042.42 792.729 1042.42 792.729 1016.29 818.854 1016.29ZM862.396 1129.5 836.271 1129.5 836.271 1103.38 862.396 1103.38ZM862.396 1085.96 836.271 1085.96 836.271 1059.83 862.396 1059.83ZM862.396 1042.42 836.271 1042.42 836.271 1016.29 862.396 1016.29Z"/><path d="M710 893.635 773.527 957.119 785.806 944.84 710 868.99 634.194 944.84 646.473 957.119 710 893.635Z"/></g></g></g><g clip-path="url(#clip7)"><g clip-path="url(#clip8)"><g clip-path="url(#clip9)"><path d="M73.9585 48.8126C73.9585 50.4465 72.634 51.771 71.0002 51.771 69.3663 51.771 68.0418 50.4465 68.0418 48.8126 68.0418 47.1788 69.3663 45.8543 71.0002 45.8543 72.634 45.8543 73.9585 47.1788 73.9585 48.8126Z" transform="matrix(1.02112 0 0 1 1031 875)"/><path d="M73.9585 107.979C73.9585 109.613 72.634 110.938 71.0002 110.938 69.3663 110.938 68.0418 109.613 68.0418 107.979 68.0418 106.346 69.3663 105.021 71.0002 105.021 72.634 105.021 73.9585 106.346 73.9585 107.979Z" transform="matrix(1.02112 0 0 1 1031 875)"/><path d="M103.542 76.9168C103.542 78.5507 102.217 79.8752 100.584 79.8752 98.9497 79.8752 97.6252 78.5507 97.6252 76.9168 97.6252 75.283 98.9497 73.9585 100.584 73.9585 102.217 73.9585 103.542 75.283 103.542 76.9168Z" transform="matrix(1.02112 0 0 1 1031 875)"/><path d="M44.3751 76.9168C44.3751 78.5507 43.0506 79.8752 41.4168 79.8752 39.7829 79.8752 38.4584 78.5507 38.4584 76.9168 38.4584 75.283 39.7829 73.9585 41.4168 73.9585 43.0506 73.9585 44.3751 75.283 44.3751 76.9168Z" transform="matrix(1.02112 0 0 1 1031 875)"/><path d="M73.9585 56.2085 68.0418 56.2085 68.0418 76.9168C68.0418 77.6564 68.3377 78.396 68.9293 78.9877L83.5731 93.6315 87.7148 89.4898 73.9585 75.7335 73.9585 56.2085Z" transform="matrix(1.02112 0 0 1 1031 875)"/><path d="M71.0002 119.813C48.073 119.813 29.5834 101.323 29.5834 78.396 29.5834 55.4689 48.073 36.9793 71.0002 36.9793 93.9273 36.9793 112.417 55.4689 112.417 78.396 112.417 101.323 93.9273 119.813 71.0002 119.813L71.0002 119.813ZM106.056 42.3043 110.494 37.8668C112.121 36.0918 112.121 33.4292 110.346 31.6542 108.719 30.0272 105.909 29.8792 104.134 31.5063L99.1044 36.6834C92.0044 31.9501 83.8689 28.9917 75.4377 28.4001L75.4377 22.1876 88.7502 22.1876 88.7502 13.3125 53.2501 13.3125 53.2501 22.1876 66.5627 22.1876 66.5627 28.2521C43.0438 30.323 24.1105 48.5168 21.1521 72.0356 18.1938 95.5544 31.9501 117.89 54.2855 125.729 76.621 133.569 101.323 124.99 113.896 104.873 126.469 84.7564 122.919 58.7231 106.056 42.3043L106.056 42.3043Z" transform="matrix(1.02112 0 0 1 1031 875)"/></g></g></g><path d="M1228.09 1008.98C1215.44 1013.89 1203.8 1020.43 1193.15 1028.61 1185.82 1034.49 1181.17 1043.32 1180.83 1052.8L1175.18 1101.2C1174.18 1108.4 1177.51 1115.59 1183.5 1119.52 1189.49 1123.44 1195.81 1126.38 1202.46 1129L1205.46 1129 1205.46 1116.25C1200.47 1114.28 1195.48 1111.67 1190.82 1108.72 1188.82 1107.42 1187.82 1105.13 1188.15 1102.84L1194.14 1053.79 1194.14 1053.13C1194.48 1047.25 1197.14 1042.01 1201.8 1038.42 1210.78 1030.89 1223.76 1024.03 1241.73 1017.49 1251.72 1023.37 1267.03 1026.97 1284 1026.97 1300.97 1026.97 1316.28 1023.37 1326.27 1017.49 1344.57 1024.03 1357.22 1030.89 1366.2 1038.42 1370.86 1042.01 1373.52 1047.57 1373.86 1053.13L1379.85 1102.51C1380.18 1104.8 1379.18 1107.09 1377.18 1108.4L1377.18 1108.4C1372.52 1111.34 1367.86 1113.96 1362.54 1115.92L1362.54 1128.67 1365.54 1128.67C1372.19 1126.38 1378.51 1123.11 1384.5 1119.19L1384.5 1119.19C1390.49 1114.94 1393.82 1108.07 1392.82 1100.88L1387.17 1052.8C1386.83 1043.32 1382.17 1034.49 1374.85 1028.61 1364.2 1020.43 1352.56 1013.56 1339.91 1008.98 1339.91 992.306 1340.58 946.523 1340.58 927.883 1340.58 922.651 1339.91 917.418 1338.58 912.186 1334.25 896.489 1323.27 883.408 1308.63 875.886 1307.3 875.232 1305.3 875.232 1304.3 876.213L1301.31 878.503 1297.98 873.924C1296.98 872.289 1295.32 871.308 1293.65 870.981 1290.32 870.327 1287.33 870 1284 870 1270.69 870 1257.38 874.906 1247.39 883.408 1234.75 894.527 1227.76 910.223 1228.09 926.902L1228.09 1008.98ZM1244.73 955.679 1247.06 928.864 1320.61 928.864 1322.94 955.679C1318.94 976.936 1298.31 990.998 1276.35 987.073 1260.37 984.13 1247.72 971.704 1244.73 955.679ZM1258.04 1010.29C1261.7 1007.35 1264.03 1002.44 1264.03 997.538L1264.03 996.884C1276.68 1002.12 1291.32 1002.12 1303.97 996.884L1303.97 997.538C1303.97 1002.44 1306.3 1007.02 1309.96 1010.29 1301.64 1012.91 1292.65 1013.89 1284 1013.89 1275.35 1013.89 1266.36 1012.91 1258.04 1010.29Z" fill-rule="evenodd"/><path d="M1355.71 1086.17C1355.71 1081.6 1352.05 1078 1347.39 1078L1347.39 1078 1220.61 1078C1215.95 1078 1212.29 1081.6 1212.29 1086.17L1212.29 1086.17 1212.29 1167.58 1187 1167.58 1187 1171.83C1187 1176.4 1190.66 1180 1195.32 1180L1372.68 1180C1377.34 1180 1381 1176.4 1381 1171.83L1381 1167.58 1355.71 1167.58 1355.71 1086.17ZM1266.53 1140.12 1261.87 1144.69 1243.24 1126.38 1261.87 1108.08 1266.53 1112.65 1252.55 1126.38 1266.53 1140.12ZM1279.18 1146.98 1273.19 1144.37 1288.83 1107.42 1294.81 1110.04 1279.18 1146.98ZM1305.8 1145.02 1301.14 1140.44 1315.11 1126.71 1301.14 1112.98 1305.8 1108.4 1324.43 1126.71 1305.8 1145.02Z" fill-rule="evenodd"/><path d="M1268.5 1041.75 1276.75 1041.75 1276.75 1033.5 1293.25 1033.5 1293.25 1041.75 1301.5 1041.75 1301.5 1060.25 1293.25 1060.25 1293.25 1068.5 1276.75 1068.5 1276.75 1060.25 1268.5 1060.25Z" stroke="#FF0000" stroke-width="4.58333" stroke-miterlimit="8" fill="#FF0000" fill-rule="evenodd"/><path d="M1216.5 1095.17C1216.5 1087.07 1223.07 1080.5 1231.17 1080.5L1337.83 1080.5C1345.93 1080.5 1352.5 1087.07 1352.5 1095.17L1352.5 1153.83C1352.5 1161.93 1345.93 1168.5 1337.83 1168.5L1231.17 1168.5C1223.07 1168.5 1216.5 1161.93 1216.5 1153.83Z" stroke="#000000" stroke-width="4.58333" stroke-miterlimit="8" fill-rule="evenodd"/><g clip-path="url(#clip10)"><g clip-path="url(#clip11)"><g clip-path="url(#clip12)"><path d="M9.66665 24.1666 9.66665 91.8332 106.333 91.8332 106.333 24.1666 9.66665 24.1666ZM59.6916 66.3374C58.7249 67.3041 57.2749 67.3041 56.3083 66.3374L20.5416 31.4166 95.579 31.4166 59.6916 66.3374ZM40.4791 57.6374 16.9166 81.3207 16.9166 34.5583 40.4791 57.6374ZM43.9833 61.0207 53.0458 69.8416C54.4958 71.1707 56.3083 71.8957 58.1207 71.8957 59.9332 71.8957 61.7457 71.1707 63.1957 69.8416L72.2582 61.0207 95.6999 84.5832 20.4208 84.5832 43.9833 61.0207ZM75.5207 57.6374 99.0832 34.6791 99.0832 81.1999 75.5207 57.6374Z" transform="matrix(1 0 0 1.01725 2931 1371)"/></g></g></g><g clip-path="url(#clip13)"><g clip-path="url(#clip14)"><g clip-path="url(#clip15)"><path d="M344.229 268.667 58.7708 268.667 58.7708 83.9583 344.229 83.9583 344.229 268.667ZM352.625 58.7708 50.375 58.7708C41.1396 58.7708 33.5833 66.3271 33.5833 75.5625L33.5833 277.062C33.5833 286.298 41.1396 293.854 50.375 293.854L167.917 293.854 167.917 319.042 125.937 319.042 125.937 344.229 277.062 344.229 277.062 319.042 235.083 319.042 235.083 293.854 352.625 293.854C361.86 293.854 369.417 286.298 369.417 277.062L369.417 75.5625C369.417 66.3271 361.86 58.7708 352.625 58.7708Z" transform="matrix(1 0 0 1.01737 2709 1302)"/></g></g></g><g clip-path="url(#clip16)"><g clip-path="url(#clip17)"><g clip-path="url(#clip18)"><path d="M56.25 37.125C56.25 38.3676 55.2426 39.375 54 39.375 52.7573 39.375 51.75 38.3676 51.75 37.125 51.75 35.8823 52.7573 34.875 54 34.875 55.2426 34.875 56.25 35.8823 56.25 37.125Z" transform="matrix(1 0 0 1.09259 2751 1455)"/><path d="M56.25 82.1249C56.25 83.3676 55.2426 84.3749 54 84.3749 52.7573 84.3749 51.75 83.3676 51.75 82.1249 51.75 80.8823 52.7573 79.8749 54 79.8749 55.2426 79.8749 56.25 80.8823 56.25 82.1249Z" transform="matrix(1 0 0 1.09259 2751 1455)"/><path d="M78.7499 58.5C78.7499 59.7426 77.7426 60.75 76.5 60.75 75.2573 60.75 74.25 59.7426 74.25 58.5 74.25 57.2573 75.2573 56.25 76.5 56.25 77.7426 56.25 78.7499 57.2573 78.7499 58.5Z" transform="matrix(1 0 0 1.09259 2751 1455)"/><path d="M33.75 58.5C33.75 59.7426 32.7426 60.75 31.5 60.75 30.2573 60.75 29.25 59.7426 29.25 58.5 29.25 57.2573 30.2573 56.25 31.5 56.25 32.7426 56.25 33.75 57.2573 33.75 58.5Z" transform="matrix(1 0 0 1.09259 2751 1455)"/><path d="M56.25 42.75 51.75 42.75 51.75 58.5C51.75 59.0625 51.975 59.625 52.425 60.075L63.5625 71.2125 66.7125 68.0625 56.25 57.6 56.25 42.75Z" transform="matrix(1 0 0 1.09259 2751 1455)"/><path d="M54 91.1249C36.5625 91.1249 22.5 77.0625 22.5 59.625 22.5 42.1875 36.5625 28.125 54 28.125 71.4375 28.125 85.4999 42.1875 85.4999 59.625 85.4999 77.0625 71.4375 91.1249 54 91.1249L54 91.1249ZM80.6624 32.175 84.0374 28.8C85.2749 27.45 85.2749 25.425 83.9249 24.075 82.6874 22.8375 80.5499 22.725 79.2 23.9625L75.375 27.9C69.975 24.3 63.7875 22.05 57.375 21.6L57.375 16.875 67.5 16.875 67.5 10.125 40.5 10.125 40.5 16.875 50.625 16.875 50.625 21.4875C32.7375 23.0625 18.3375 36.9 16.0875 54.7875 13.8375 72.6749 24.3 89.6624 41.2875 95.6249 58.275 101.587 77.0625 95.0624 86.6249 79.7625 96.1874 64.4625 93.4874 44.6625 80.6624 32.175L80.6624 32.175Z" transform="matrix(1 0 0 1.09259 2751 1455)"/></g></g></g><g clip-path="url(#clip19)"><g clip-path="url(#clip20)"><g clip-path="url(#clip21)"><path d="M336.542 262.667 57.4583 262.667 57.4583 82.0833 336.542 82.0833 336.542 262.667ZM344.75 57.4583 49.25 57.4583C40.2208 57.4583 32.8333 64.8458 32.8333 73.875L32.8333 270.875C32.8333 279.904 40.2208 287.292 49.25 287.292L164.167 287.292 164.167 311.917 123.125 311.917 123.125 336.542 270.875 336.542 270.875 311.917 229.833 311.917 229.833 287.292 344.75 287.292C353.779 287.292 361.167 279.904 361.167 270.875L361.167 73.875C361.167 64.8458 353.779 57.4583 344.75 57.4583Z" transform="matrix(1.02538 0 0 1 1936 1298)"/></g></g></g><g clip-path="url(#clip22)"><g clip-path="url(#clip23)"><g clip-path="url(#clip24)"><path d="M38.1718 28.4375 66.6093 28.4375 66.6093 32.8125 38.1718 32.8125Z" transform="matrix(1.02857 0 0 1 2150 1380)"/><path d="M38.1718 37.1874 66.6093 37.1874 66.6093 41.5624 38.1718 41.5624Z" transform="matrix(1.02857 0 0 1 2150 1380)"/><path d="M38.1718 45.9374 66.6093 45.9374 66.6093 50.3124 38.1718 50.3124Z" transform="matrix(1.02857 0 0 1 2150 1380)"/><path d="M90.7811 91.4374 68.9061 70.6561 90.7811 49.8749 90.7811 91.4374ZM19.9062 94.0624 41.5624 73.6093 43.0937 72.1874C48.9999 66.6093 58.2968 66.6093 64.203 72.1874L65.7343 73.6093 87.2811 94.0624 19.9062 94.0624ZM16.4062 49.7655 38.2812 70.5468 16.4062 91.328 16.4062 49.7655ZM31.7187 21.875 75.4686 21.875 75.4686 58.2968 65.6249 67.703C58.5155 62.2343 48.6718 62.2343 41.5624 67.703L31.7187 58.2968 31.7187 21.875ZM82.0311 24.8281 82.0311 15.3125 66.7187 15.3125 53.5937 4.37499 40.4687 15.3125 25.1562 15.3125 25.1562 24.9375 9.84373 39.4843 9.84373 100.625 97.3436 100.625 97.3436 39.4843 82.0311 24.8281Z" transform="matrix(1.02857 0 0 1 2150 1380)"/></g></g></g><g clip-path="url(#clip25)"><g clip-path="url(#clip26)"><g clip-path="url(#clip27)"><path d="M56.25 37.125C56.25 38.3676 55.2426 39.375 54 39.375 52.7573 39.375 51.75 38.3676 51.75 37.125 51.75 35.8823 52.7573 34.875 54 34.875 55.2426 34.875 56.25 35.8823 56.25 37.125Z" transform="matrix(1 0 0 1.06482 1985 1450)"/><path d="M56.25 82.1249C56.25 83.3676 55.2426 84.3749 54 84.3749 52.7573 84.3749 51.75 83.3676 51.75 82.1249 51.75 80.8823 52.7573 79.8749 54 79.8749 55.2426 79.8749 56.25 80.8823 56.25 82.1249Z" transform="matrix(1 0 0 1.06482 1985 1450)"/><path d="M78.7499 58.5C78.7499 59.7426 77.7426 60.75 76.5 60.75 75.2573 60.75 74.25 59.7426 74.25 58.5 74.25 57.2573 75.2573 56.25 76.5 56.25 77.7426 56.25 78.7499 57.2573 78.7499 58.5Z" transform="matrix(1 0 0 1.06482 1985 1450)"/><path d="M33.75 58.5C33.75 59.7426 32.7426 60.75 31.5 60.75 30.2573 60.75 29.25 59.7426 29.25 58.5 29.25 57.2573 30.2573 56.25 31.5 56.25 32.7426 56.25 33.75 57.2573 33.75 58.5Z" transform="matrix(1 0 0 1.06482 1985 1450)"/><path d="M56.25 42.75 51.75 42.75 51.75 58.5C51.75 59.0625 51.975 59.625 52.425 60.075L63.5625 71.2125 66.7125 68.0625 56.25 57.6 56.25 42.75Z" transform="matrix(1 0 0 1.06482 1985 1450)"/><path d="M54 91.1249C36.5625 91.1249 22.5 77.0625 22.5 59.625 22.5 42.1875 36.5625 28.125 54 28.125 71.4375 28.125 85.4999 42.1875 85.4999 59.625 85.4999 77.0625 71.4375 91.1249 54 91.1249L54 91.1249ZM80.6624 32.175 84.0374 28.8C85.2749 27.45 85.2749 25.425 83.9249 24.075 82.6874 22.8375 80.5499 22.725 79.2 23.9625L75.375 27.9C69.975 24.3 63.7875 22.05 57.375 21.6L57.375 16.875 67.5 16.875 67.5 10.125 40.5 10.125 40.5 16.875 50.625 16.875 50.625 21.4875C32.7375 23.0625 18.3375 36.9 16.0875 54.7875 13.8375 72.6749 24.3 89.6624 41.2875 95.6249 58.275 101.587 77.0625 95.0624 86.6249 79.7625 96.1874 64.4625 93.4874 44.6625 80.6624 32.175L80.6624 32.175Z" transform="matrix(1 0 0 1.06482 1985 1450)"/></g></g></g><text fill="#2C415C" font-family="Arial,Arial_MSFontService,sans-serif" font-weight="700" font-size="50" transform="matrix(1 0 0 1 273.039 739)">Patient back at the <tspan font-size="50" x="0" y="59">Hospital </tspan><tspan font-size="50" x="1622.69" y="-152">Patient admission in</tspan>-progress<tspan font-size="50" x="2372.73" y="487">HospitalNotification</tspan><tspan font-size="50" x="2862" y="487">sent</tspan><tspan font-size="50" x="1580.62" y="488">HospitalNotification</tspan><tspan font-size="50" x="2069.9" y="488">created</tspan><tspan fill="#333333" font-weight="400" font-size="46" x="2454.08" y="1080">Provenance.recorded</tspan><tspan fill="#333333" font-weight="400" font-size="46" x="2428.42" y="1219">Provenance.occuredDateTime</tspan><tspan fill="#333333" font-family="Calibri,Calibri_MSFontService,sans-serif" font-weight="400" font-size="50" x="1666.88" y="1111">Bundle.timestamp</tspan></text><path d="M2340.5 1537.06 2639.94 1537.06 2639.94 1543.94 2340.5 1543.94ZM2635.35 1526.75 2662.85 1540.5 2635.35 1554.25Z"/><path d="M2142.15 1675 2142.15 1762.75 2139.85 1762.75 2139.85 1675ZM2154.75 1758.17 2141 1785.67 2127.25 1758.17Z" fill="#2C415C"/><path d="M2912.15 1671 2912.15 1758.75 2909.85 1758.75 2909.85 1671ZM2924.75 1754.17 2911 1781.67 2897.25 1754.17Z" fill="#2C415C"/><text fill="#2C415C" font-family="Arial,Arial_MSFontService,sans-serif" font-weight="700" font-size="50" transform="matrix(1 0 0 1 1171.18 769)">Onleave<tspan font-size="50" x="209.688" y="0">end</tspan></text><g clip-path="url(#clip28)"><g clip-path="url(#clip29)"><g clip-path="url(#clip30)"><path d="M2301.08 807.51 2117.56 807.51 2117.56 903.26C2117.59 912.063 2124.72 919.193 2133.52 919.219L2293.1 919.219 2293.1 939.167 2317.04 939.167 2317.04 823.469C2317.02 814.666 2309.89 807.537 2301.08 807.51Z"/><path d="M1989.9 759.635C1990.02 753.145 1984.85 747.787 1978.36 747.667 1978.22 747.664 1978.07 747.664 1977.93 747.667 1971.44 747.547 1966.08 752.71 1965.96 759.201 1965.96 759.345 1965.96 759.491 1965.96 759.635L1965.96 939.167 1989.9 939.167 1989.9 899.271 2105.59 899.271 2105.59 859.375 1989.9 811.5Z"/><path d="M2053.24 788.712C2053.24 801.932 2042.53 812.649 2029.31 812.649 2016.08 812.649 2005.37 801.932 2005.37 788.712 2005.37 775.491 2016.08 764.774 2029.31 764.774 2042.53 764.774 2053.24 775.491 2053.24 788.712Z"/><path d="M2045.79 822.623 2105.59 847.538 2105.59 804.319 2097.96 801.127C2077.62 792.728 2054.31 802.332 2045.79 822.623Z"/><path d="M2245.23 679.844 2157.46 679.844C2153.05 679.844 2149.48 683.416 2149.48 687.823L2149.48 750.555C2149.48 754.962 2153.05 758.534 2157.46 758.534L2245.23 758.534C2249.64 758.534 2253.21 754.962 2253.21 750.555L2253.21 687.823C2253.21 683.416 2249.64 679.844 2245.23 679.844ZM2246.13 722.03 2232.09 722.03 2221.99 733.113C2220.75 734.471 2218.65 734.569 2217.29 733.331 2216.84 732.919 2216.51 732.391 2216.34 731.804L2211.36 714.769 2199.37 746.47C2198.88 747.766 2197.64 748.623 2196.25 748.62L2195.97 748.62C2194.48 748.488 2193.27 747.382 2192.99 745.915L2185.39 705.325 2180.57 719.74C2180.12 721.105 2178.85 722.03 2177.41 722.034L2157.46 722.034 2157.46 715.379 2175.01 715.379 2183.12 691.043C2183.71 689.302 2185.6 688.371 2187.34 688.962 2188.48 689.347 2189.32 690.312 2189.54 691.489L2197.3 733.041 2208.63 703.119C2209.28 701.4 2211.2 700.532 2212.92 701.181 2213.9 701.55 2214.64 702.358 2214.94 703.362L2221.06 724.244 2228.15 716.488C2228.77 715.787 2229.67 715.384 2230.61 715.379L2246.13 715.379Z"/></g></g></g><g clip-path="url(#clip31)"><g clip-path="url(#clip32)"><g clip-path="url(#clip33)"><path d="M236 107.183 306.8 178.475 320.567 164.708 236 83.5833 149.467 166.183 163.233 179.95Z" transform="matrix(1.00212 0 0 1 3431 1236)"/><path d="M393.333 284.675 354 284.675 354 245.342 393.333 245.342 393.333 284.675ZM393.333 343.675 354 343.675 354 304.342 393.333 304.342 393.333 343.675ZM334.333 284.675 295 284.675 295 245.342 334.333 245.342 334.333 284.675ZM334.333 343.675 295 343.675 295 304.342 334.333 304.342 334.333 343.675ZM270.417 284.675 201.583 284.675 201.583 265.008 270.417 265.008 270.417 284.675ZM236 191.258C244.358 191.258 250.75 197.65 250.75 206.008 250.75 214.367 244.358 220.758 236 220.758 227.642 220.758 221.25 214.367 221.25 206.008 221.25 197.65 227.642 191.258 236 191.258ZM177 284.675 137.667 284.675 137.667 245.342 177 245.342 177 284.675ZM177 343.675 137.667 343.675 137.667 304.342 177 304.342 177 343.675ZM118 284.675 78.6667 284.675 78.6667 245.342 118 245.342 118 284.675ZM118 343.675 78.6667 343.675 78.6667 304.342 118 304.342 118 343.675ZM295 220.758 295 191.258 236 132.258 177 191.258 177 220.758 59 220.758 59 387.925 201.583 387.925 201.583 333.842C201.583 320.075 211.417 304.342 236 304.342 260.583 304.342 270.417 320.075 270.417 333.842L270.417 387.925 413 387.925 413 220.758 295 220.758Z" transform="matrix(1.00212 0 0 1 3431 1236)"/></g></g></g><text fill="#2C415C" font-family="Arial,Arial_MSFontService,sans-serif" font-weight="700" font-size="50" transform="matrix(1 0 0 1 3503.01 1227)">Municipality</text><path d="M3121.5 1540.06 3420.94 1540.06 3420.94 1546.94 3121.5 1546.94ZM3416.35 1529.75 3443.85 1543.5 3416.35 1557.25Z"/><path d="M1479.5 1065.06 1695.57 1065.06 1695.57 1475.47 1692.14 1472.03 1881.86 1472.03 1881.86 1478.91 1688.7 1478.91 1688.7 1068.5 1692.14 1071.94 1479.5 1071.94ZM1877.27 1461.72 1904.77 1475.47 1877.27 1489.22Z"/><path d="M0-3.4375 216.075-3.4375 216.075 256.712 212.637 253.275 402.358 253.275 402.358 260.15 209.2 260.15 209.2 0 212.637 3.4375 0 3.4375ZM397.775 242.962 425.275 256.712 397.775 270.462Z" transform="matrix(1 0 0 -1 1479.5 1069.21)"/><path d="M388.5 1075.06 477.981 1075.06 477.981 1081.94 388.5 1081.94ZM473.398 1064.75 500.898 1078.5 473.398 1092.25Z"/><path d="M970.5 1075.06 1059.98 1075.06 1059.98 1081.94 970.5 1081.94ZM1055.4 1064.75 1082.9 1078.5 1055.4 1092.25Z"/></g></svg>