<svg width="4252" height="1490" xmlns="http://www.w3.org/2000/svg" xmlns:xlink="http://www.w3.org/1999/xlink" xml:space="preserve" overflow="hidden"><defs><clipPath id="clip0"><rect x="-30" y="525" width="4252" height="1490"/></clipPath><clipPath id="clip1"><rect x="-30" y="819" width="419" height="419"/></clipPath><clipPath id="clip2"><rect x="-30" y="819" width="419" height="419"/></clipPath><clipPath id="clip3"><rect x="-30" y="819" width="419" height="419"/></clipPath><clipPath id="clip4"><rect x="500" y="819" width="419" height="419"/></clipPath><clipPath id="clip5"><rect x="500" y="819" width="419" height="419"/></clipPath><clipPath id="clip6"><rect x="500" y="819" width="419" height="419"/></clipPath><clipPath id="clip7"><rect x="1030" y="877" width="146" height="144"/></clipPath><clipPath id="clip8"><rect x="1030" y="877" width="146" height="144"/></clipPath><clipPath id="clip9"><rect x="1030" y="877" width="146" height="144"/></clipPath><clipPath id="clip10"><rect x="2931" y="1373" width="116" height="119"/></clipPath><clipPath id="clip11"><rect x="2931" y="1373" width="116" height="119"/></clipPath><clipPath id="clip12"><rect x="2931" y="1373" width="116" height="119"/></clipPath><clipPath id="clip13"><rect x="2709" y="1304" width="403" height="411"/></clipPath><clipPath id="clip14"><rect x="2709" y="1304" width="403" height="411"/></clipPath><clipPath id="clip15"><rect x="2709" y="1304" width="403" height="411"/></clipPath><clipPath id="clip16"><rect x="2751" y="1457" width="108" height="120"/></clipPath><clipPath id="clip17"><rect x="2751" y="1457" width="108" height="120"/></clipPath><clipPath id="clip18"><rect x="2751" y="1457" width="108" height="120"/></clipPath><clipPath id="clip19"><rect x="1936" y="1301" width="404" height="396"/></clipPath><clipPath id="clip20"><rect x="1936" y="1301" width="404" height="396"/></clipPath><clipPath id="clip21"><rect x="1936" y="1301" width="404" height="396"/></clipPath><clipPath id="clip22"><rect x="2150" y="1382" width="109" height="107"/></clipPath><clipPath id="clip23"><rect x="2150" y="1382" width="109" height="107"/></clipPath><clipPath id="clip24"><rect x="2150" y="1382" width="109" height="107"/></clipPath><clipPath id="clip25"><rect x="1985" y="1454" width="109" height="114"/></clipPath><clipPath id="clip26"><rect x="1985" y="1454" width="109" height="114"/></clipPath><clipPath id="clip27"><rect x="1985" y="1454" width="109" height="114"/></clipPath><clipPath id="clip28"><rect x="964" y="1337" width="69" height="69"/></clipPath><clipPath id="clip29"><rect x="964" y="1337" width="69" height="69"/></clipPath><clipPath id="clip30"><rect x="964" y="1337" width="69" height="69"/></clipPath><clipPath id="clip31"><rect x="1944" y="623" width="384" height="384"/></clipPath><clipPath id="clip32"><rect x="1944" y="623" width="384" height="384"/></clipPath><clipPath id="clip33"><rect x="1944" y="623" width="384" height="384"/></clipPath><clipPath id="clip34"><rect x="3430" y="1238" width="474" height="473"/></clipPath><clipPath id="clip35"><rect x="3430" y="1238" width="474" height="473"/></clipPath><clipPath id="clip36"><rect x="3430" y="1238" width="474" height="473"/></clipPath></defs><g clip-path="url(#clip0)" transform="translate(30 -525)"><g clip-path="url(#clip1)"><g clip-path="url(#clip2)"><g clip-path="url(#clip3)"><path d="M298.26 204.646C296.519 204.646 295.212 204.646 293.471 205.081 292.165 199.856 288.681 195.067 283.021 192.89L246.01 178.085 222.062 122.787 222.062 122.787C217.273 109.725 204.646 100.146 189.406 100.146 181.569 100.146 174.602 102.758 168.942 106.677L168.942 106.677 110.16 146.3C106.677 148.912 104.065 152.396 102.758 156.75L89.6958 213.354C87.5187 222.933 93.1792 232.077 102.758 234.254 104.065 234.69 105.371 234.69 106.677 234.69 114.515 234.69 121.917 229.029 123.658 221.192L134.979 171.554 145.865 164.152C141.51 193.76 141.075 217.273 141.075 221.192L136.721 297.39 119.74 374.458C117.562 384.037 123.658 393.181 132.802 395.358 134.108 395.794 135.415 395.794 136.721 395.794 144.558 395.794 151.96 390.133 153.702 382.296L171.119 303.921C171.119 303.05 171.554 302.179 171.554 301.308L173.731 258.638 202.033 289.987 205.952 370.975C206.387 380.119 214.225 387.521 223.369 387.521 223.804 387.521 223.804 387.521 224.24 387.521 233.819 387.085 241.221 378.812 240.785 369.233L236.431 282.15C236.431 278.231 234.69 274.312 232.077 271.265L201.598 237.737 201.598 167.2C201.598 167.2 202.033 167.2 202.033 166.765L215.967 198.55C217.708 202.904 221.192 205.952 225.546 207.694L268.652 225.11C267.346 228.158 266.91 231.642 266.91 235.125 266.91 244.704 271.265 252.977 278.231 258.638 278.231 258.638 278.667 259.073 278.667 259.073 279.973 260.379 282.15 261.25 284.327 261.25 289.117 261.25 293.035 257.331 293.035 252.542 293.035 249.494 291.729 246.881 289.552 245.575 287.375 242.962 285.198 239.479 285.198 235.125 285.198 227.723 290.858 222.062 298.26 222.062 305.662 222.062 311.323 227.723 311.323 235.125L311.323 262.556 311.323 274.312 311.323 387.521C311.323 392.31 315.242 396.229 320.031 396.229 324.821 396.229 328.74 392.31 328.74 387.521L328.74 235.125C328.74 218.144 315.242 204.646 298.26 204.646Z" transform="matrix(1 0 0 1.00239 -29.9999 819)"/><path d="M248.187 60.9583C248.187 80.1963 232.592 95.7917 213.354 95.7917 194.116 95.7917 178.521 80.1963 178.521 60.9583 178.521 41.7204 194.116 26.125 213.354 26.125 232.592 26.125 248.187 41.7204 248.187 60.9583Z" transform="matrix(1 0 0 1.00239 -29.9999 819)"/></g></g></g><g clip-path="url(#clip4)"><g clip-path="url(#clip5)"><g clip-path="url(#clip6)"><path d="M261.25 165.458 261.25 152.396 209 100.146 156.75 152.396 156.75 165.458 30.4792 165.458 30.4792 182.875 39.1875 182.875 39.1875 348.333 378.812 348.333 378.812 182.875 387.521 182.875 387.521 165.458ZM82.7292 313.5 56.6042 313.5 56.6042 287.375 82.7292 287.375ZM82.7292 269.958 56.6042 269.958 56.6042 243.833 82.7292 243.833ZM82.7292 226.417 56.6042 226.417 56.6042 200.292 82.7292 200.292ZM126.271 313.5 100.146 313.5 100.146 287.375 126.271 287.375ZM126.271 269.958 100.146 269.958 100.146 243.833 126.271 243.833ZM126.271 226.417 100.146 226.417 100.146 200.292 126.271 200.292ZM169.812 313.5 143.688 313.5 143.688 287.375 169.812 287.375ZM169.812 269.958 143.688 269.958 143.688 243.833 169.812 243.833ZM169.812 226.417 143.688 226.417 143.688 200.292 169.812 200.292ZM191.583 330.917 191.583 269.958 226.417 269.958 226.417 330.917ZM239.479 182.352 231.337 196.46 217.142 188.231 217.142 204.646 200.858 204.646 200.858 188.231 186.663 196.46 178.521 182.352 192.759 174.167 178.521 165.981 186.663 151.873 200.858 160.103 200.858 143.688 217.142 143.688 217.142 160.103 231.337 151.873 239.479 165.981 225.241 174.167ZM274.312 313.5 248.187 313.5 248.187 287.375 274.312 287.375ZM274.312 269.958 248.187 269.958 248.187 243.833 274.312 243.833ZM274.312 226.417 248.187 226.417 248.187 200.292 274.312 200.292ZM317.854 313.5 291.729 313.5 291.729 287.375 317.854 287.375ZM317.854 269.958 291.729 269.958 291.729 243.833 317.854 243.833ZM317.854 226.417 291.729 226.417 291.729 200.292 317.854 200.292ZM361.396 313.5 335.271 313.5 335.271 287.375 361.396 287.375ZM361.396 269.958 335.271 269.958 335.271 243.833 361.396 243.833ZM361.396 226.417 335.271 226.417 335.271 200.292 361.396 200.292Z" transform="matrix(1 0 0 1.00239 501 819)"/><path d="M209 77.6348 272.527 141.119 284.806 128.84 209 52.9902 133.194 128.84 145.473 141.119 209 77.6348Z" transform="matrix(1 0 0 1.00239 501 819)"/></g></g></g><g clip-path="url(#clip7)"><g clip-path="url(#clip8)"><g clip-path="url(#clip9)"><path d="M74.4792 49.1562C74.4792 50.8016 73.1453 52.1354 71.5 52.1354 69.8547 52.1354 68.5208 50.8016 68.5208 49.1562 68.5208 47.5109 69.8547 46.1771 71.5 46.1771 73.1453 46.1771 74.4792 47.5109 74.4792 49.1562Z" transform="matrix(1.01399 0 0 1 1031 878)"/><path d="M74.4792 108.74C74.4792 110.385 73.1453 111.719 71.5 111.719 69.8547 111.719 68.5208 110.385 68.5208 108.74 68.5208 107.094 69.8547 105.76 71.5 105.76 73.1453 105.76 74.4792 107.094 74.4792 108.74Z" transform="matrix(1.01399 0 0 1 1031 878)"/><path d="M104.271 77.4583C104.271 79.1037 102.937 80.4375 101.292 80.4375 99.6463 80.4375 98.3125 79.1037 98.3125 77.4583 98.3125 75.813 99.6463 74.4792 101.292 74.4792 102.937 74.4792 104.271 75.813 104.271 77.4583Z" transform="matrix(1.01399 0 0 1 1031 878)"/><path d="M44.6875 77.4583C44.6875 79.1037 43.3537 80.4375 41.7083 80.4375 40.063 80.4375 38.7292 79.1037 38.7292 77.4583 38.7292 75.813 40.063 74.4792 41.7083 74.4792 43.3537 74.4792 44.6875 75.813 44.6875 77.4583Z" transform="matrix(1.01399 0 0 1 1031 878)"/><path d="M74.4792 56.6042 68.5208 56.6042 68.5208 77.4583C68.5208 78.2031 68.8188 78.9479 69.4146 79.5438L84.1615 94.2906 88.3323 90.1198 74.4792 76.2667 74.4792 56.6042Z" transform="matrix(1.01399 0 0 1 1031 878)"/><path d="M71.5 120.656C48.4115 120.656 29.7917 102.036 29.7917 78.9479 29.7917 55.8594 48.4115 37.2396 71.5 37.2396 94.5885 37.2396 113.208 55.8594 113.208 78.9479 113.208 102.036 94.5885 120.656 71.5 120.656L71.5 120.656ZM106.803 42.6021 111.272 38.1333C112.91 36.3458 112.91 33.6646 111.123 31.8771 109.484 30.2385 106.654 30.0896 104.867 31.7281L99.8021 36.9417C92.6521 32.175 84.4594 29.1958 75.9688 28.6L75.9688 22.3438 89.375 22.3438 89.375 13.4062 53.625 13.4062 53.625 22.3438 67.0312 22.3438 67.0312 28.451C43.3469 30.5365 24.2802 48.8583 21.301 72.5427 18.3219 96.2271 32.175 118.72 54.6677 126.615 77.1604 134.509 102.036 125.87 114.698 105.611 127.359 85.3531 123.784 59.1365 106.803 42.6021L106.803 42.6021Z" transform="matrix(1.01399 0 0 1 1031 878)"/></g></g></g><path d="M1228.09 1011.98C1215.44 1016.89 1203.8 1023.43 1193.15 1031.61 1185.82 1037.49 1181.17 1046.32 1180.83 1055.8L1175.18 1104.2C1174.18 1111.4 1177.51 1118.59 1183.5 1122.52 1189.49 1126.44 1195.81 1129.38 1202.46 1132L1205.46 1132 1205.46 1119.25C1200.47 1117.28 1195.48 1114.67 1190.82 1111.72 1188.82 1110.42 1187.82 1108.13 1188.15 1105.84L1194.14 1056.79 1194.14 1056.13C1194.48 1050.25 1197.14 1045.01 1201.8 1041.42 1210.78 1033.89 1223.76 1027.03 1241.73 1020.49 1251.72 1026.37 1267.03 1029.97 1284 1029.97 1300.97 1029.97 1316.28 1026.37 1326.27 1020.49 1344.57 1027.03 1357.22 1033.89 1366.2 1041.42 1370.86 1045.01 1373.52 1050.57 1373.86 1056.13L1379.85 1105.51C1380.18 1107.8 1379.18 1110.09 1377.18 1111.4L1377.18 1111.4C1372.52 1114.34 1367.86 1116.96 1362.54 1118.92L1362.54 1131.67 1365.54 1131.67C1372.19 1129.38 1378.51 1126.11 1384.5 1122.19L1384.5 1122.19C1390.49 1117.94 1393.82 1111.07 1392.82 1103.88L1387.17 1055.8C1386.83 1046.32 1382.17 1037.49 1374.85 1031.61 1364.2 1023.43 1352.56 1016.56 1339.91 1011.98 1339.91 995.306 1340.58 949.523 1340.58 930.883 1340.58 925.651 1339.91 920.418 1338.58 915.186 1334.25 899.489 1323.27 886.408 1308.63 878.886 1307.3 878.232 1305.3 878.232 1304.3 879.213L1301.31 881.503 1297.98 876.924C1296.98 875.289 1295.32 874.308 1293.65 873.981 1290.32 873.327 1287.33 873 1284 873 1270.69 873 1257.38 877.906 1247.39 886.408 1234.75 897.527 1227.76 913.223 1228.09 929.902L1228.09 1011.98ZM1244.73 958.679 1247.06 931.864 1320.61 931.864 1322.94 958.679C1318.94 979.936 1298.31 993.998 1276.35 990.073 1260.37 987.13 1247.72 974.704 1244.73 958.679ZM1258.04 1013.29C1261.7 1010.35 1264.03 1005.44 1264.03 1000.54L1264.03 999.884C1276.68 1005.12 1291.32 1005.12 1303.97 999.884L1303.97 1000.54C1303.97 1005.44 1306.3 1010.02 1309.96 1013.29 1301.64 1015.91 1292.65 1016.89 1284 1016.89 1275.35 1016.89 1266.36 1015.91 1258.04 1013.29Z" fill-rule="evenodd"/><path d="M1355.71 1089.17C1355.71 1084.6 1352.05 1081 1347.39 1081L1347.39 1081 1220.61 1081C1215.95 1081 1212.29 1084.6 1212.29 1089.17L1212.29 1089.17 1212.29 1170.58 1187 1170.58 1187 1174.83C1187 1179.4 1190.66 1183 1195.32 1183L1372.68 1183C1377.34 1183 1381 1179.4 1381 1174.83L1381 1170.58 1355.71 1170.58 1355.71 1089.17ZM1266.53 1143.12 1261.87 1147.69 1243.24 1129.38 1261.87 1111.08 1266.53 1115.65 1252.55 1129.38 1266.53 1143.12ZM1279.18 1149.98 1273.19 1147.37 1288.83 1110.42 1294.81 1113.04 1279.18 1149.98ZM1305.8 1148.02 1301.14 1143.44 1315.11 1129.71 1301.14 1115.98 1305.8 1111.4 1324.43 1129.71 1305.8 1148.02Z" fill-rule="evenodd"/><path d="M1268.5 1044.75 1276.75 1044.75 1276.75 1036.5 1293.25 1036.5 1293.25 1044.75 1301.5 1044.75 1301.5 1064.25 1293.25 1064.25 1293.25 1072.5 1276.75 1072.5 1276.75 1064.25 1268.5 1064.25Z" stroke="#FF0000" stroke-width="4.58333" stroke-miterlimit="8" fill="#FF0000" fill-rule="evenodd"/><path d="M1216.5 1099C1216.5 1090.99 1222.99 1084.5 1231 1084.5L1338 1084.5C1346.01 1084.5 1352.5 1090.99 1352.5 1099L1352.5 1157C1352.5 1165.01 1346.01 1171.5 1338 1171.5L1231 1171.5C1222.99 1171.5 1216.5 1165.01 1216.5 1157Z" stroke="#000000" stroke-width="4.58333" stroke-miterlimit="8" fill-rule="evenodd"/><g clip-path="url(#clip10)"><g clip-path="url(#clip11)"><g clip-path="url(#clip12)"><path d="M9.66665 24.1666 9.66665 91.8332 106.333 91.8332 106.333 24.1666 9.66665 24.1666ZM59.6916 66.3374C58.7249 67.3041 57.2749 67.3041 56.3083 66.3374L20.5416 31.4166 95.579 31.4166 59.6916 66.3374ZM40.4791 57.6374 16.9166 81.3207 16.9166 34.5583 40.4791 57.6374ZM43.9833 61.0207 53.0458 69.8416C54.4958 71.1707 56.3083 71.8957 58.1207 71.8957 59.9332 71.8957 61.7457 71.1707 63.1957 69.8416L72.2582 61.0207 95.6999 84.5832 20.4208 84.5832 43.9833 61.0207ZM75.5207 57.6374 99.0832 34.6791 99.0832 81.1999 75.5207 57.6374Z" transform="matrix(1 0 0 1.01724 2931 1374)"/></g></g></g><g clip-path="url(#clip13)"><g clip-path="url(#clip14)"><g clip-path="url(#clip15)"><path d="M344.229 268.667 58.7708 268.667 58.7708 83.9583 344.229 83.9583 344.229 268.667ZM352.625 58.7708 50.375 58.7708C41.1396 58.7708 33.5833 66.3271 33.5833 75.5625L33.5833 277.062C33.5833 286.298 41.1396 293.854 50.375 293.854L167.917 293.854 167.917 319.042 125.937 319.042 125.937 344.229 277.062 344.229 277.062 319.042 235.083 319.042 235.083 293.854 352.625 293.854C361.86 293.854 369.417 286.298 369.417 277.062L369.417 75.5625C369.417 66.3271 361.86 58.7708 352.625 58.7708Z" transform="matrix(1 0 0 1.01737 2709 1305)"/></g></g></g><g clip-path="url(#clip16)"><g clip-path="url(#clip17)"><g clip-path="url(#clip18)"><path d="M56.25 37.125C56.25 38.3676 55.2426 39.375 54 39.375 52.7573 39.375 51.75 38.3676 51.75 37.125 51.75 35.8823 52.7573 34.875 54 34.875 55.2426 34.875 56.25 35.8823 56.25 37.125Z" transform="matrix(1 0 0 1.0926 2751 1458)"/><path d="M56.25 82.1249C56.25 83.3676 55.2426 84.3749 54 84.3749 52.7573 84.3749 51.75 83.3676 51.75 82.1249 51.75 80.8823 52.7573 79.8749 54 79.8749 55.2426 79.8749 56.25 80.8823 56.25 82.1249Z" transform="matrix(1 0 0 1.0926 2751 1458)"/><path d="M78.7499 58.5C78.7499 59.7426 77.7426 60.75 76.5 60.75 75.2573 60.75 74.25 59.7426 74.25 58.5 74.25 57.2573 75.2573 56.25 76.5 56.25 77.7426 56.25 78.7499 57.2573 78.7499 58.5Z" transform="matrix(1 0 0 1.0926 2751 1458)"/><path d="M33.75 58.5C33.75 59.7426 32.7426 60.75 31.5 60.75 30.2573 60.75 29.25 59.7426 29.25 58.5 29.25 57.2573 30.2573 56.25 31.5 56.25 32.7426 56.25 33.75 57.2573 33.75 58.5Z" transform="matrix(1 0 0 1.0926 2751 1458)"/><path d="M56.25 42.75 51.75 42.75 51.75 58.5C51.75 59.0625 51.975 59.625 52.425 60.075L63.5625 71.2125 66.7125 68.0625 56.25 57.6 56.25 42.75Z" transform="matrix(1 0 0 1.0926 2751 1458)"/><path d="M54 91.1249C36.5625 91.1249 22.5 77.0625 22.5 59.625 22.5 42.1875 36.5625 28.125 54 28.125 71.4375 28.125 85.4999 42.1875 85.4999 59.625 85.4999 77.0625 71.4375 91.1249 54 91.1249L54 91.1249ZM80.6624 32.175 84.0374 28.8C85.2749 27.45 85.2749 25.425 83.9249 24.075 82.6874 22.8375 80.5499 22.725 79.2 23.9625L75.375 27.9C69.975 24.3 63.7875 22.05 57.375 21.6L57.375 16.875 67.5 16.875 67.5 10.125 40.5 10.125 40.5 16.875 50.625 16.875 50.625 21.4875C32.7375 23.0625 18.3375 36.9 16.0875 54.7875 13.8375 72.6749 24.3 89.6624 41.2875 95.6249 58.275 101.587 77.0625 95.0624 86.6249 79.7625 96.1874 64.4625 93.4874 44.6625 80.6624 32.175L80.6624 32.175Z" transform="matrix(1 0 0 1.0926 2751 1458)"/></g></g></g><g clip-path="url(#clip19)"><g clip-path="url(#clip20)"><g clip-path="url(#clip21)"><path d="M337.396 263.333 57.6042 263.333 57.6042 82.2917 337.396 82.2917 337.396 263.333ZM345.625 57.6042 49.375 57.6042C40.3229 57.6042 32.9167 65.0104 32.9167 74.0625L32.9167 271.562C32.9167 280.615 40.3229 288.021 49.375 288.021L164.583 288.021 164.583 312.708 123.437 312.708 123.437 337.396 271.562 337.396 271.562 312.708 230.417 312.708 230.417 288.021 345.625 288.021C354.677 288.021 362.083 280.615 362.083 271.562L362.083 74.0625C362.083 65.0104 354.677 57.6042 345.625 57.6042Z" transform="matrix(1.02278 0 0 1 1936 1301)"/></g></g></g><g clip-path="url(#clip22)"><g clip-path="url(#clip23)"><g clip-path="url(#clip24)"><path d="M38.1719 28.4376 66.6095 28.4376 66.6095 32.8126 38.1719 32.8126Z" transform="matrix(1.02857 0 0 1 2150 1383)"/><path d="M38.1719 37.1876 66.6095 37.1876 66.6095 41.5626 38.1719 41.5626Z" transform="matrix(1.02857 0 0 1 2150 1383)"/><path d="M38.1719 45.9376 66.6095 45.9376 66.6095 50.3126 38.1719 50.3126Z" transform="matrix(1.02857 0 0 1 2150 1383)"/><path d="M90.7814 91.4377 68.9064 70.6564 90.7814 49.8751 90.7814 91.4377ZM19.9063 94.0627 41.5626 73.6095 43.0938 72.1876C49.0001 66.6095 58.297 66.6095 64.2032 72.1876L65.7345 73.6095 87.2814 94.0627 19.9063 94.0627ZM16.4063 49.7657 38.2813 70.547 16.4063 91.3283 16.4063 49.7657ZM31.7188 21.875 75.4689 21.875 75.4689 58.297 65.6251 67.7033C58.5157 62.2345 48.672 62.2345 41.5626 67.7033L31.7188 58.297 31.7188 21.875ZM82.0314 24.8282 82.0314 15.3125 66.7189 15.3125 53.5938 4.37501 40.4688 15.3125 25.1563 15.3125 25.1563 24.9375 9.84377 39.4844 9.84377 100.625 97.3439 100.625 97.3439 39.4844 82.0314 24.8282Z" transform="matrix(1.02857 0 0 1 2150 1383)"/></g></g></g><g clip-path="url(#clip25)"><g clip-path="url(#clip26)"><g clip-path="url(#clip27)"><path d="M56.25 37.125C56.25 38.3676 55.2426 39.375 54 39.375 52.7573 39.375 51.75 38.3676 51.75 37.125 51.75 35.8823 52.7573 34.875 54 34.875 55.2426 34.875 56.25 35.8823 56.25 37.125Z" transform="matrix(1 0 0 1.05555 1985 1454)"/><path d="M56.25 82.1249C56.25 83.3676 55.2426 84.3749 54 84.3749 52.7573 84.3749 51.75 83.3676 51.75 82.1249 51.75 80.8823 52.7573 79.8749 54 79.8749 55.2426 79.8749 56.25 80.8823 56.25 82.1249Z" transform="matrix(1 0 0 1.05555 1985 1454)"/><path d="M78.7499 58.5C78.7499 59.7426 77.7426 60.75 76.5 60.75 75.2573 60.75 74.25 59.7426 74.25 58.5 74.25 57.2573 75.2573 56.25 76.5 56.25 77.7426 56.25 78.7499 57.2573 78.7499 58.5Z" transform="matrix(1 0 0 1.05555 1985 1454)"/><path d="M33.75 58.5C33.75 59.7426 32.7426 60.75 31.5 60.75 30.2573 60.75 29.25 59.7426 29.25 58.5 29.25 57.2573 30.2573 56.25 31.5 56.25 32.7426 56.25 33.75 57.2573 33.75 58.5Z" transform="matrix(1 0 0 1.05555 1985 1454)"/><path d="M56.25 42.75 51.75 42.75 51.75 58.5C51.75 59.0625 51.975 59.625 52.425 60.075L63.5625 71.2125 66.7125 68.0625 56.25 57.6 56.25 42.75Z" transform="matrix(1 0 0 1.05555 1985 1454)"/><path d="M54 91.1249C36.5625 91.1249 22.5 77.0625 22.5 59.625 22.5 42.1875 36.5625 28.125 54 28.125 71.4375 28.125 85.4999 42.1875 85.4999 59.625 85.4999 77.0625 71.4375 91.1249 54 91.1249L54 91.1249ZM80.6624 32.175 84.0374 28.8C85.2749 27.45 85.2749 25.425 83.9249 24.075 82.6874 22.8375 80.5499 22.725 79.2 23.9625L75.375 27.9C69.975 24.3 63.7875 22.05 57.375 21.6L57.375 16.875 67.5 16.875 67.5 10.125 40.5 10.125 40.5 16.875 50.625 16.875 50.625 21.4875C32.7375 23.0625 18.3375 36.9 16.0875 54.7875 13.8375 72.6749 24.3 89.6624 41.2875 95.6249 58.275 101.587 77.0625 95.0624 86.6249 79.7625 96.1874 64.4625 93.4874 44.6625 80.6624 32.175L80.6624 32.175Z" transform="matrix(1 0 0 1.05555 1985 1454)"/></g></g></g><text fill="#2C415C" font-family="Arial,Arial_MSFontService,sans-serif" font-weight="700" font-size="50" transform="matrix(1 0 0 1 273.039 741)">Start hospital stay<tspan font-size="50" x="1631.71" y="-151">Patient</tspan>-<tspan font-size="50" x="1816.19" y="-151">admission in</tspan>-progress<tspan font-size="50" x="2372.73" y="488">HospitalNotification</tspan><tspan font-size="50" x="2862" y="488">sent</tspan><tspan font-size="50" x="1580.62" y="489">HospitalNotification</tspan><tspan font-size="50" x="2069.9" y="489">created</tspan><tspan fill="#333333" font-weight="400" font-size="46" x="2456.16" y="1081">Provenance.recorded</tspan><tspan fill="#333333" font-weight="400" font-size="46" x="2429.93" y="1181">Provenance.occuredDateTim</tspan><tspan fill="#333333" font-weight="400" font-size="46" x="2712.68" y="1236">e</tspan><tspan fill="#333333" font-family="Calibri,Calibri_MSFontService,sans-serif" font-weight="400" font-size="50" x="1666.88" y="1112">Bundle.timestamp</tspan><tspan fill="#333333" font-family="Calibri,Calibri_MSFontService,sans-serif" font-weight="400" font-size="50" x="767.356" y="647">Encounter.period.start</tspan></text><path d="M2340.5 1540.06 2639.94 1540.06 2639.94 1546.94 2340.5 1546.94ZM2635.35 1529.75 2662.85 1543.5 2635.35 1557.25Z"/><path d="M1277.15 1214 1277.15 1301.75 1274.85 1301.75 1274.85 1214ZM1289.75 1297.17 1276 1324.67 1262.25 1297.17Z" fill="#2C415C"/><path d="M2142.15 1679 2142.15 1766.75 2139.85 1766.75 2139.85 1679ZM2154.75 1762.17 2141 1789.67 2127.25 1762.17Z" fill="#2C415C"/><path d="M2912.15 1675 2912.15 1762.75 2909.85 1762.75 2909.85 1675ZM2924.75 1758.17 2911 1785.67 2897.25 1758.17Z" fill="#2C415C"/><g clip-path="url(#clip28)"><g clip-path="url(#clip29)"><g clip-path="url(#clip30)"><path d="M1000.42 1387.02 1000.42 1390.77 997.583 1390.77 997.583 1387.02C995.954 1386.45 994.75 1384.89 994.75 1382.98 994.75 1380.64 996.662 1378.73 999 1378.73 1001.34 1378.73 1003.25 1380.64 1003.25 1382.98 1003.25 1384.82 1002.05 1386.38 1000.42 1387.02ZM988.375 1361.02C988.375 1355.14 993.121 1350.4 999 1350.4 1004.88 1350.4 1009.62 1355.14 1009.62 1361.02L1009.62 1368.88 999 1368.1 988.375 1368.88 988.375 1361.02ZM1013.87 1369.17 1013.87 1361.02C1013.87 1352.8 1007.22 1346.15 999 1346.15 990.783 1346.15 984.125 1352.8 984.125 1361.02L984.125 1369.17 979.167 1369.52 979.167 1396.44 999 1397.85 1018.83 1396.44 1018.83 1369.52 1013.87 1369.17Z"/></g></g></g><text fill="#2C415C" font-family="Arial,Arial_MSFontService,sans-serif" font-weight="700" font-size="50" transform="matrix(1 0 0 1 987.033 741)">Patient<tspan font-size="50" x="167.865" y="0">-</tspan><tspan font-size="50" x="184.479" y="0">admission</tspan><tspan font-size="50" x="447.448" y="0">start</tspan></text><g clip-path="url(#clip31)"><g clip-path="url(#clip32)"><g clip-path="url(#clip33)"><path d="M350.167 187.021 167.125 187.021 167.125 282.521C167.151 291.301 174.262 298.411 183.042 298.438L342.209 298.438 342.209 318.334 366.084 318.334 366.084 202.938C366.057 194.158 358.947 187.047 350.167 187.021Z" transform="matrix(1.00262 0 0 1 1945 624)"/><path d="M39.7917 139.271C39.9115 132.798 34.7611 127.453 28.288 127.333 28.1434 127.331 27.9987 127.331 27.8542 127.333 21.3811 127.214 16.0364 132.364 15.9167 138.837 15.914 138.982 15.914 139.126 15.9167 139.271L15.9167 318.334 39.7917 318.334 39.7917 278.542 155.188 278.542 155.188 238.75 39.7917 191Z" transform="matrix(1.00262 0 0 1 1945 624)"/><path d="M102.973 168.271C102.973 181.457 92.2837 192.146 79.0979 192.146 65.9121 192.146 55.2229 181.457 55.2229 168.271 55.2229 155.085 65.9121 144.396 79.0979 144.396 92.2837 144.396 102.973 155.085 102.973 168.271Z" transform="matrix(1.00262 0 0 1 1945 624)"/><path d="M95.5438 202.094 155.188 226.944 155.188 183.838 147.571 180.654C127.284 172.277 104.039 181.856 95.5438 202.094Z" transform="matrix(1.00262 0 0 1 1945 624)"/><path d="M294.459 59.6875 206.917 59.6875C202.521 59.6875 198.958 63.2505 198.958 67.6459L198.958 130.214C198.958 134.61 202.521 138.173 206.917 138.173L294.459 138.173C298.854 138.173 302.417 134.61 302.417 130.214L302.417 67.6459C302.417 63.2505 298.854 59.6875 294.459 59.6875ZM295.358 101.763 281.351 101.763 271.28 112.817C270.046 114.172 267.947 114.269 266.592 113.035 266.141 112.624 265.812 112.098 265.641 111.512L260.679 94.5212 248.718 126.14C248.231 127.432 246.992 128.287 245.61 128.284L245.324 128.284C243.842 128.152 242.63 127.049 242.359 125.587L234.771 85.1025 229.968 99.4792C229.52 100.841 228.25 101.763 226.817 101.767L206.917 101.767 206.917 95.13 224.425 95.13 232.515 70.8571C233.104 69.1214 234.989 68.1922 236.724 68.7815 237.856 69.1655 238.694 70.1285 238.917 71.3027L246.657 112.746 257.954 82.902C258.601 81.187 260.515 80.3215 262.23 80.9685 263.207 81.3366 263.953 82.1428 264.245 83.1447L270.349 103.972 277.424 96.2362C278.047 95.5371 278.938 95.1348 279.875 95.13L295.354 95.13Z" transform="matrix(1.00262 0 0 1 1945 624)"/></g></g></g><g clip-path="url(#clip34)"><g clip-path="url(#clip35)"><g clip-path="url(#clip36)"><path d="M236 107.183 306.8 178.475 320.567 164.708 236 83.5833 149.467 166.183 163.233 179.95Z" transform="matrix(1.00212 0 0 1 3431 1239)"/><path d="M393.333 284.675 354 284.675 354 245.342 393.333 245.342 393.333 284.675ZM393.333 343.675 354 343.675 354 304.342 393.333 304.342 393.333 343.675ZM334.333 284.675 295 284.675 295 245.342 334.333 245.342 334.333 284.675ZM334.333 343.675 295 343.675 295 304.342 334.333 304.342 334.333 343.675ZM270.417 284.675 201.583 284.675 201.583 265.008 270.417 265.008 270.417 284.675ZM236 191.258C244.358 191.258 250.75 197.65 250.75 206.008 250.75 214.367 244.358 220.758 236 220.758 227.642 220.758 221.25 214.367 221.25 206.008 221.25 197.65 227.642 191.258 236 191.258ZM177 284.675 137.667 284.675 137.667 245.342 177 245.342 177 284.675ZM177 343.675 137.667 343.675 137.667 304.342 177 304.342 177 343.675ZM118 284.675 78.6667 284.675 78.6667 245.342 118 245.342 118 284.675ZM118 343.675 78.6667 343.675 78.6667 304.342 118 304.342 118 343.675ZM295 220.758 295 191.258 236 132.258 177 191.258 177 220.758 59 220.758 59 387.925 201.583 387.925 201.583 333.842C201.583 320.075 211.417 304.342 236 304.342 260.583 304.342 270.417 320.075 270.417 333.842L270.417 387.925 413 387.925 413 220.758 295 220.758Z" transform="matrix(1.00212 0 0 1 3431 1239)"/></g></g></g><text fill="#2C415C" font-family="Arial,Arial_MSFontService,sans-serif" font-weight="700" font-size="50" transform="matrix(1 0 0 1 3503.01 1230)">Municipality</text><path d="M3121.5 1543.06 3420.94 1543.06 3420.94 1549.94 3121.5 1549.94ZM3416.35 1532.75 3443.85 1546.5 3416.35 1560.25Z"/><path d="M1479.5 1069.06 1695.57 1069.06 1695.57 1479.47 1692.14 1476.03 1881.86 1476.03 1881.86 1482.91 1688.7 1482.91 1688.7 1072.5 1692.14 1075.94 1479.5 1075.94ZM1877.27 1465.72 1904.77 1479.47 1877.27 1493.22Z"/><path d="M0-3.4375 216.075-3.4375 216.075 256.712 212.637 253.275 402.358 253.275 402.358 260.15 209.2 260.15 209.2 0 212.637 3.4375 0 3.4375ZM397.775 242.962 425.275 256.712 397.775 270.462Z" transform="matrix(1 0 0 -1 1479.5 1072.21)"/><path d="M388.5 1078.06 477.981 1078.06 477.981 1084.94 388.5 1084.94ZM473.398 1067.75 500.898 1081.5 473.398 1095.25Z"/><path d="M970.5 1078.06 1059.98 1078.06 1059.98 1084.94 970.5 1084.94ZM1055.4 1067.75 1082.9 1081.5 1055.4 1095.25Z"/></g></svg>