<svg width="3170" height="1674" xmlns="http://www.w3.org/2000/svg" xmlns:xlink="http://www.w3.org/1999/xlink" xml:space="preserve" overflow="hidden"><defs><clipPath id="clip0"><rect x="162" y="254" width="3170" height="1674"/></clipPath><clipPath id="clip1"><rect x="224" y="727" width="146" height="149"/></clipPath><clipPath id="clip2"><rect x="224" y="727" width="146" height="149"/></clipPath><clipPath id="clip3"><rect x="224" y="727" width="146" height="149"/></clipPath><clipPath id="clip4"><rect x="2214" y="1276" width="116" height="118"/></clipPath><clipPath id="clip5"><rect x="2214" y="1276" width="116" height="118"/></clipPath><clipPath id="clip6"><rect x="2214" y="1276" width="116" height="118"/></clipPath><clipPath id="clip7"><rect x="1992" y="1206" width="403" height="411"/></clipPath><clipPath id="clip8"><rect x="1992" y="1206" width="403" height="411"/></clipPath><clipPath id="clip9"><rect x="1992" y="1206" width="403" height="411"/></clipPath><clipPath id="clip10"><rect x="2032" y="1358" width="110" height="121"/></clipPath><clipPath id="clip11"><rect x="2032" y="1358" width="110" height="121"/></clipPath><clipPath id="clip12"><rect x="2032" y="1358" width="110" height="121"/></clipPath><clipPath id="clip13"><rect x="1222" y="1224" width="403" height="396"/></clipPath><clipPath id="clip14"><rect x="1222" y="1224" width="403" height="396"/></clipPath><clipPath id="clip15"><rect x="1222" y="1224" width="403" height="396"/></clipPath><clipPath id="clip16"><rect x="1435" y="1305" width="109" height="108"/></clipPath><clipPath id="clip17"><rect x="1435" y="1305" width="109" height="108"/></clipPath><clipPath id="clip18"><rect x="1435" y="1305" width="109" height="108"/></clipPath><clipPath id="clip19"><rect x="1270" y="1377" width="110" height="114"/></clipPath><clipPath id="clip20"><rect x="1270" y="1377" width="110" height="114"/></clipPath><clipPath id="clip21"><rect x="1270" y="1377" width="110" height="114"/></clipPath><clipPath id="clip22"><rect x="1174" y="371" width="440" height="440"/></clipPath><clipPath id="clip23"><rect x="1174" y="371" width="440" height="440"/></clipPath><clipPath id="clip24"><rect x="1174" y="371" width="440" height="440"/></clipPath><clipPath id="clip25"><rect x="1776" y="418" width="380" height="380"/></clipPath><clipPath id="clip26"><rect x="1776" y="418" width="380" height="380"/></clipPath><clipPath id="clip27"><rect x="1776" y="418" width="380" height="380"/></clipPath><clipPath id="clip28"><rect x="2601" y="1182" width="473" height="474"/></clipPath><clipPath id="clip29"><rect x="2601" y="1182" width="473" height="474"/></clipPath><clipPath id="clip30"><rect x="2601" y="1182" width="473" height="474"/></clipPath></defs><g clip-path="url(#clip0)" transform="translate(-162 -254)"><g clip-path="url(#clip1)"><g clip-path="url(#clip2)"><g clip-path="url(#clip3)"><path d="M76.0415 50.1874C76.0415 51.8673 74.6797 53.2291 72.9999 53.2291 71.32 53.2291 69.9582 51.8673 69.9582 50.1874 69.9582 48.5075 71.32 47.1457 72.9999 47.1457 74.6797 47.1457 76.0415 48.5075 76.0415 50.1874Z" transform="matrix(1 0 0 1.02055 224 727)"/><path d="M76.0415 111.021C76.0415 112.701 74.6797 114.062 72.9999 114.062 71.32 114.062 69.9582 112.701 69.9582 111.021 69.9582 109.341 71.32 107.979 72.9999 107.979 74.6797 107.979 76.0415 109.341 76.0415 111.021Z" transform="matrix(1 0 0 1.02055 224 727)"/><path d="M106.458 79.0832C106.458 80.7631 105.096 82.1249 103.416 82.1249 101.737 82.1249 100.375 80.7631 100.375 79.0832 100.375 77.4033 101.737 76.0415 103.416 76.0415 105.096 76.0415 106.458 77.4033 106.458 79.0832Z" transform="matrix(1 0 0 1.02055 224 727)"/><path d="M45.6249 79.0832C45.6249 80.7631 44.2631 82.1249 42.5833 82.1249 40.9034 82.1249 39.5416 80.7631 39.5416 79.0832 39.5416 77.4033 40.9034 76.0415 42.5833 76.0415 44.2631 76.0415 45.6249 77.4033 45.6249 79.0832Z" transform="matrix(1 0 0 1.02055 224 727)"/><path d="M76.0415 57.7916 69.9582 57.7916 69.9582 79.0832C69.9582 79.8436 70.2624 80.604 70.8707 81.2124L85.9269 96.2686 90.1853 92.0103 76.0415 77.8665 76.0415 57.7916Z" transform="matrix(1 0 0 1.02055 224 727)"/><path d="M72.9999 123.187C49.427 123.187 30.4166 104.177 30.4166 80.604 30.4166 57.0311 49.427 38.0208 72.9999 38.0208 96.5727 38.0208 115.583 57.0311 115.583 80.604 115.583 104.177 96.5727 123.187 72.9999 123.187L72.9999 123.187ZM109.044 43.4958 113.606 38.9333C115.279 37.1083 115.279 34.3708 113.454 32.5458 111.781 30.8729 108.891 30.7208 107.066 32.3937L101.896 37.7166C94.5957 32.8499 86.2311 29.8083 77.5624 29.1999L77.5624 22.8125 91.2498 22.8125 91.2498 13.6875 54.7499 13.6875 54.7499 22.8125 68.4374 22.8125 68.4374 29.0479C44.2562 31.177 24.7895 49.8832 21.7479 74.0645 18.7062 98.2457 32.8499 121.21 55.8145 129.271 78.779 137.331 104.177 128.51 117.104 107.827 130.031 87.1436 126.381 60.377 109.044 43.4958L109.044 43.4958Z" transform="matrix(1 0 0 1.02055 224 727)"/></g></g></g><path d="M420.09 831.887C407.444 837 395.796 843.818 385.147 852.341 377.825 858.478 373.166 867.682 372.833 877.569L367.176 928.023C366.177 935.523 369.505 943.023 375.496 947.114 381.486 951.205 387.809 954.273 394.465 957L397.46 957 397.46 943.705C392.468 941.66 387.476 938.932 382.817 935.864 380.82 934.5 379.822 932.114 380.155 929.728L386.145 878.591 386.145 877.909C386.478 871.773 389.14 866.318 393.799 862.569 402.785 854.728 415.764 847.569 433.735 840.75 443.719 846.887 459.027 850.637 476 850.637 492.973 850.637 508.281 846.887 518.265 840.75 536.569 847.569 549.216 854.728 558.201 862.569 562.86 866.318 565.522 872.114 565.855 877.909L571.846 929.387C572.178 931.773 571.18 934.16 569.183 935.523L569.183 935.523C564.524 938.591 559.865 941.319 554.54 943.364L554.54 956.66 557.535 956.66C564.191 954.273 570.515 950.864 576.505 946.773L576.505 946.773C582.495 942.341 585.823 935.182 584.825 927.682L579.167 877.569C578.834 867.682 574.175 858.478 566.854 852.341 556.204 843.818 544.556 836.66 531.91 831.887 531.91 814.5 532.576 766.773 532.576 747.341 532.576 741.887 531.91 736.432 530.579 730.978 526.252 714.614 515.27 700.978 500.627 693.137 499.296 692.455 497.299 692.455 496.301 693.477L493.306 695.864 489.978 691.091C488.979 689.386 487.315 688.364 485.651 688.023 482.323 687.341 479.328 687 476 687 462.688 687 449.377 692.114 439.393 700.978 426.746 712.569 419.757 728.932 420.09 746.318L420.09 831.887ZM436.73 776.318 439.06 748.364 512.608 748.364 514.937 776.318C510.944 798.478 490.31 813.137 468.346 809.046 452.372 805.978 439.725 793.023 436.73 776.318ZM450.042 833.25C453.703 830.182 456.032 825.069 456.032 819.955L456.032 819.273C468.679 824.728 483.322 824.728 495.968 819.273L495.968 819.955C495.968 825.069 498.297 829.841 501.958 833.25 493.638 835.978 484.653 837 476 837 467.348 837 458.362 835.978 450.042 833.25Z" fill-rule="evenodd"/><path d="M547.71 912.574C547.71 907.773 544.05 904 539.391 904L539.391 904 412.609 904C407.951 904 404.29 907.773 404.29 912.574L404.29 912.574 404.29 997.968 379 997.968 379 1002.43C379 1007.23 382.661 1011 387.319 1011L564.681 1011C569.34 1011 573 1007.23 573 1002.43L573 997.968 547.71 997.968 547.71 912.574ZM458.53 969.16 453.872 973.962 435.237 954.756 453.872 935.551 458.53 940.353 444.554 954.756 458.53 969.16ZM471.175 976.362 465.186 973.619 480.825 934.865 486.815 937.609 471.175 976.362ZM497.796 974.305 493.138 969.503 507.114 955.099 493.138 940.696 497.796 935.894 516.431 955.099 497.796 974.305Z" fill-rule="evenodd"/><path d="M459.5 865.75 467.75 865.75 467.75 857.5 484.25 857.5 484.25 865.75 492.5 865.75 492.5 886.25 484.25 886.25 484.25 894.5 467.75 894.5 467.75 886.25 459.5 886.25Z" stroke="#FF0000" stroke-width="4.58333" stroke-miterlimit="8" fill="#FF0000" fill-rule="evenodd"/><path d="M408.5 922.667C408.5 914.291 415.29 907.5 423.667 907.5L529.333 907.5C537.709 907.5 544.5 914.291 544.5 922.667L544.5 983.333C544.5 991.71 537.709 998.5 529.333 998.5L423.667 998.5C415.29 998.5 408.5 991.71 408.5 983.333Z" stroke="#000000" stroke-width="4.58333" stroke-miterlimit="8" fill-rule="evenodd"/><g clip-path="url(#clip4)"><g clip-path="url(#clip5)"><g clip-path="url(#clip6)"><path d="M9.66665 24.1666 9.66665 91.8332 106.333 91.8332 106.333 24.1666 9.66665 24.1666ZM59.6916 66.3374C58.7249 67.3041 57.2749 67.3041 56.3083 66.3374L20.5416 31.4166 95.579 31.4166 59.6916 66.3374ZM40.4791 57.6374 16.9166 81.3207 16.9166 34.5583 40.4791 57.6374ZM43.9833 61.0207 53.0458 69.8416C54.4958 71.1707 56.3083 71.8957 58.1207 71.8957 59.9332 71.8957 61.7457 71.1707 63.1957 69.8416L72.2582 61.0207 95.6999 84.5832 20.4208 84.5832 43.9833 61.0207ZM75.5207 57.6374 99.0832 34.6791 99.0832 81.1999 75.5207 57.6374Z" transform="matrix(1 0 0 1.01724 2214 1276)"/></g></g></g><g clip-path="url(#clip7)"><g clip-path="url(#clip8)"><g clip-path="url(#clip9)"><path d="M344.229 268.667 58.7708 268.667 58.7708 83.9583 344.229 83.9583 344.229 268.667ZM352.625 58.7708 50.375 58.7708C41.1396 58.7708 33.5833 66.3271 33.5833 75.5625L33.5833 277.062C33.5833 286.298 41.1396 293.854 50.375 293.854L167.917 293.854 167.917 319.042 125.937 319.042 125.937 344.229 277.062 344.229 277.062 319.042 235.083 319.042 235.083 293.854 352.625 293.854C361.86 293.854 369.417 286.298 369.417 277.062L369.417 75.5625C369.417 66.3271 361.86 58.7708 352.625 58.7708Z" transform="matrix(1 0 0 1.01737 1992 1207)"/></g></g></g><g clip-path="url(#clip10)"><g clip-path="url(#clip11)"><g clip-path="url(#clip12)"><path d="M56.7708 37.4687C56.7708 38.7229 55.7541 39.7396 54.5 39.7396 53.2458 39.7396 52.2291 38.7229 52.2291 37.4687 52.2291 36.2146 53.2458 35.1979 54.5 35.1979 55.7541 35.1979 56.7708 36.2146 56.7708 37.4687Z" transform="matrix(1 0 0 1.09175 2033 1359)"/><path d="M56.7708 82.8854C56.7708 84.1395 55.7541 85.1562 54.5 85.1562 53.2458 85.1562 52.2291 84.1395 52.2291 82.8854 52.2291 81.6312 53.2458 80.6146 54.5 80.6146 55.7541 80.6146 56.7708 81.6312 56.7708 82.8854Z" transform="matrix(1 0 0 1.09175 2033 1359)"/><path d="M79.4791 59.0416C79.4791 60.2958 78.4624 61.3125 77.2083 61.3125 75.9542 61.3125 74.9375 60.2958 74.9375 59.0416 74.9375 57.7875 75.9542 56.7708 77.2083 56.7708 78.4624 56.7708 79.4791 57.7875 79.4791 59.0416Z" transform="matrix(1 0 0 1.09175 2033 1359)"/><path d="M34.0625 59.0416C34.0625 60.2958 33.0458 61.3125 31.7917 61.3125 30.5375 61.3125 29.5208 60.2958 29.5208 59.0416 29.5208 57.7875 30.5375 56.7708 31.7917 56.7708 33.0458 56.7708 34.0625 57.7875 34.0625 59.0416Z" transform="matrix(1 0 0 1.09175 2033 1359)"/><path d="M56.7708 43.1458 52.2291 43.1458 52.2291 59.0416C52.2291 59.6094 52.4562 60.1771 52.9104 60.6312L64.151 71.8718 67.3302 68.6927 56.7708 58.1333 56.7708 43.1458Z" transform="matrix(1 0 0 1.09175 2033 1359)"/><path d="M54.5 91.9687C36.901 91.9687 22.7083 77.776 22.7083 60.1771 22.7083 42.5781 36.901 28.3854 54.5 28.3854 72.0989 28.3854 86.2916 42.5781 86.2916 60.1771 86.2916 77.776 72.0989 91.9687 54.5 91.9687L54.5 91.9687ZM81.4093 32.4729 84.8156 29.0667C86.0646 27.7042 86.0646 25.6604 84.702 24.2979 83.4531 23.049 81.2958 22.9354 79.9333 24.1844L76.0729 28.1583C70.6229 24.525 64.3781 22.2542 57.9062 21.8L57.9062 17.0312 68.125 17.0312 68.125 10.2187 40.875 10.2187 40.875 17.0312 51.0937 17.0312 51.0937 21.6865C33.0406 23.276 18.5073 37.2417 16.2365 55.2948 13.9656 73.3479 24.525 90.4927 41.6698 96.5104 58.8146 102.528 77.776 95.9427 87.4271 80.501 97.0781 65.0593 94.3531 45.076 81.4093 32.4729L81.4093 32.4729Z" transform="matrix(1 0 0 1.09175 2033 1359)"/></g></g></g><g clip-path="url(#clip13)"><g clip-path="url(#clip14)"><g clip-path="url(#clip15)"><path d="M337.396 263.333 57.6042 263.333 57.6042 82.2917 337.396 82.2917 337.396 263.333ZM345.625 57.6042 49.375 57.6042C40.3229 57.6042 32.9167 65.0104 32.9167 74.0625L32.9167 271.562C32.9167 280.615 40.3229 288.021 49.375 288.021L164.583 288.021 164.583 312.708 123.437 312.708 123.437 337.396 271.562 337.396 271.562 312.708 230.417 312.708 230.417 288.021 345.625 288.021C354.677 288.021 362.083 280.615 362.083 271.562L362.083 74.0625C362.083 65.0104 354.677 57.6042 345.625 57.6042Z" transform="matrix(1.02025 0 0 1 1222 1224)"/></g></g></g><g clip-path="url(#clip16)"><g clip-path="url(#clip17)"><g clip-path="url(#clip18)"><path d="M38.5355 28.7084 67.2439 28.7084 67.2439 33.1251 38.5355 33.1251Z" transform="matrix(1.00943 0 0 1 1436 1306)"/><path d="M38.5355 37.5417 67.2439 37.5417 67.2439 41.9584 38.5355 41.9584Z" transform="matrix(1.00943 0 0 1 1436 1306)"/><path d="M38.5355 46.3751 67.2439 46.3751 67.2439 50.7918 38.5355 50.7918Z" transform="matrix(1.00943 0 0 1 1436 1306)"/><path d="M91.646 92.3085 69.5626 71.3293 91.646 50.3501 91.646 92.3085ZM20.0959 94.9585 41.9584 74.3106 43.5043 72.8752C49.4668 67.2439 58.8522 67.2439 64.8147 72.8752L66.3606 74.3106 88.1127 94.9585 20.0959 94.9585ZM16.5625 50.2397 38.6459 71.2189 16.5625 92.1981 16.5625 50.2397ZM32.0209 22.0834 76.1877 22.0834 76.1877 58.8522 66.2501 68.3481C59.073 62.8272 49.1355 62.8272 41.9584 68.3481L32.0209 58.8522 32.0209 22.0834ZM82.8127 25.0646 82.8127 15.4584 67.3543 15.4584 54.1043 4.41668 40.8543 15.4584 25.3959 15.4584 25.3959 25.1751 9.93752 39.8605 9.93752 101.584 98.271 101.584 98.271 39.8605 82.8127 25.0646Z" transform="matrix(1.00943 0 0 1 1436 1306)"/></g></g></g><g clip-path="url(#clip19)"><g clip-path="url(#clip20)"><g clip-path="url(#clip21)"><path d="M56.7708 37.4687C56.7708 38.7229 55.7541 39.7396 54.5 39.7396 53.2458 39.7396 52.2291 38.7229 52.2291 37.4687 52.2291 36.2146 53.2458 35.1979 54.5 35.1979 55.7541 35.1979 56.7708 36.2146 56.7708 37.4687Z" transform="matrix(1 0 0 1.04587 1270 1377)"/><path d="M56.7708 82.8854C56.7708 84.1395 55.7541 85.1562 54.5 85.1562 53.2458 85.1562 52.2291 84.1395 52.2291 82.8854 52.2291 81.6312 53.2458 80.6146 54.5 80.6146 55.7541 80.6146 56.7708 81.6312 56.7708 82.8854Z" transform="matrix(1 0 0 1.04587 1270 1377)"/><path d="M79.4791 59.0416C79.4791 60.2958 78.4624 61.3125 77.2083 61.3125 75.9542 61.3125 74.9375 60.2958 74.9375 59.0416 74.9375 57.7875 75.9542 56.7708 77.2083 56.7708 78.4624 56.7708 79.4791 57.7875 79.4791 59.0416Z" transform="matrix(1 0 0 1.04587 1270 1377)"/><path d="M34.0625 59.0416C34.0625 60.2958 33.0458 61.3125 31.7917 61.3125 30.5375 61.3125 29.5208 60.2958 29.5208 59.0416 29.5208 57.7875 30.5375 56.7708 31.7917 56.7708 33.0458 56.7708 34.0625 57.7875 34.0625 59.0416Z" transform="matrix(1 0 0 1.04587 1270 1377)"/><path d="M56.7708 43.1458 52.2291 43.1458 52.2291 59.0416C52.2291 59.6094 52.4562 60.1771 52.9104 60.6312L64.151 71.8718 67.3302 68.6927 56.7708 58.1333 56.7708 43.1458Z" transform="matrix(1 0 0 1.04587 1270 1377)"/><path d="M54.5 91.9687C36.901 91.9687 22.7083 77.776 22.7083 60.1771 22.7083 42.5781 36.901 28.3854 54.5 28.3854 72.0989 28.3854 86.2916 42.5781 86.2916 60.1771 86.2916 77.776 72.0989 91.9687 54.5 91.9687L54.5 91.9687ZM81.4093 32.4729 84.8156 29.0667C86.0646 27.7042 86.0646 25.6604 84.702 24.2979 83.4531 23.049 81.2958 22.9354 79.9333 24.1844L76.0729 28.1583C70.6229 24.525 64.3781 22.2542 57.9062 21.8L57.9062 17.0312 68.125 17.0312 68.125 10.2187 40.875 10.2187 40.875 17.0312 51.0937 17.0312 51.0937 21.6865C33.0406 23.276 18.5073 37.2417 16.2365 55.2948 13.9656 73.3479 24.525 90.4927 41.6698 96.5104 58.8146 102.528 77.776 95.9427 87.4271 80.501 97.0781 65.0593 94.3531 45.076 81.4093 32.4729L81.4093 32.4729Z" transform="matrix(1 0 0 1.04587 1270 1377)"/></g></g></g><text fill="#2C415C" font-family="Arial,Arial_MSFontService,sans-serif" font-weight="700" font-size="50" transform="matrix(1 0 0 1 1908.16 1150)">HospitalNotification<tspan font-size="50" x="489.271" y="0">sent</tspan><tspan font-size="50" x="-810.098" y="0">HospitalNotification</tspan><tspan font-size="50" x="-320.828" y="0">created</tspan><tspan fill="#333333" font-weight="400" font-size="46" x="69.011" y="585">Provenance.recorded</tspan><tspan fill="#333333" font-weight="400" font-size="46" x="42.7804" y="685">Provenance.occuredDateTim</tspan><tspan fill="#333333" font-weight="400" font-size="46" x="325.526" y="740">e</tspan><tspan fill="#333333" font-family="Calibri,Calibri_MSFontService,sans-serif" font-weight="400" font-size="50" x="-658.32" y="586">Bundle.timestamp</tspan><tspan font-size="50" x="-1713.41" y="-565">Patient admission end</tspan></text><g clip-path="url(#clip22)"><g clip-path="url(#clip23)"><g clip-path="url(#clip24)"><path d="M1449.37 545.771 1449.37 532.052 1394.5 477.177 1339.62 532.052 1339.62 545.771 1207.01 545.771 1207.01 564.062 1216.16 564.062 1216.16 737.833 1572.84 737.833 1572.84 564.062 1581.99 564.062 1581.99 545.771ZM1261.89 701.25 1234.45 701.25 1234.45 673.812 1261.89 673.812ZM1261.89 655.521 1234.45 655.521 1234.45 628.083 1261.89 628.083ZM1261.89 609.792 1234.45 609.792 1234.45 582.354 1261.89 582.354ZM1307.61 701.25 1280.18 701.25 1280.18 673.812 1307.61 673.812ZM1307.61 655.521 1280.18 655.521 1280.18 628.083 1307.61 628.083ZM1307.61 609.792 1280.18 609.792 1280.18 582.354 1307.61 582.354ZM1353.34 701.25 1325.91 701.25 1325.91 673.812 1353.34 673.812ZM1353.34 655.521 1325.91 655.521 1325.91 628.083 1353.34 628.083ZM1353.34 609.792 1325.91 609.792 1325.91 582.354 1353.34 582.354ZM1376.21 719.542 1376.21 655.521 1412.79 655.521 1412.79 719.542ZM1426.51 563.514 1417.96 578.33 1403.05 569.687 1403.05 586.927 1385.95 586.927 1385.95 569.687 1371.04 578.33 1362.49 563.514 1377.44 554.917 1362.49 546.32 1371.04 531.503 1385.95 540.146 1385.95 522.906 1403.05 522.906 1403.05 540.146 1417.96 531.503 1426.51 546.32 1411.56 554.917ZM1463.09 701.25 1435.66 701.25 1435.66 673.812 1463.09 673.812ZM1463.09 655.521 1435.66 655.521 1435.66 628.083 1463.09 628.083ZM1463.09 609.792 1435.66 609.792 1435.66 582.354 1463.09 582.354ZM1508.82 701.25 1481.39 701.25 1481.39 673.812 1508.82 673.812ZM1508.82 655.521 1481.39 655.521 1481.39 628.083 1508.82 628.083ZM1508.82 609.792 1481.39 609.792 1481.39 582.354 1508.82 582.354ZM1554.55 701.25 1527.11 701.25 1527.11 673.812 1554.55 673.812ZM1554.55 655.521 1527.11 655.521 1527.11 628.083 1554.55 628.083ZM1554.55 609.792 1527.11 609.792 1527.11 582.354 1554.55 582.354Z"/><path d="M1394.5 453.535 1461.22 520.208 1474.11 507.313 1394.5 427.652 1314.89 507.313 1327.78 520.208 1394.5 453.535Z"/></g></g></g><g clip-path="url(#clip25)"><g clip-path="url(#clip26)"><g clip-path="url(#clip27)"><path d="M2047.43 603.552C2045.85 603.552 2044.67 603.552 2043.09 603.947 2041.91 599.209 2038.75 594.867 2033.61 592.893L2000.06 579.47 1978.34 529.331 1978.34 529.331C1974 517.488 1962.55 508.802 1948.73 508.802 1941.63 508.802 1935.31 511.171 1930.18 514.724L1930.18 514.724 1876.88 550.65C1873.72 553.019 1871.36 556.177 1870.17 560.125L1858.33 611.448C1856.35 620.133 1861.49 628.424 1870.17 630.398 1871.36 630.793 1872.54 630.793 1873.72 630.793 1880.83 630.793 1887.54 625.661 1889.12 618.554L1899.39 573.548 1909.26 566.837C1905.31 593.682 1904.91 615.001 1904.91 618.554L1900.96 687.643 1885.57 757.521C1883.59 766.206 1889.12 774.497 1897.41 776.471 1898.6 776.866 1899.78 776.866 1900.96 776.866 1908.07 776.866 1914.78 771.734 1916.36 764.627L1932.15 693.565C1932.15 692.775 1932.55 691.986 1932.55 691.196L1934.52 652.506 1960.18 680.931 1963.74 754.363C1964.13 762.653 1971.24 769.365 1979.53 769.365 1979.92 769.365 1979.92 769.365 1980.32 769.365 1989 768.97 1995.71 761.469 1995.32 752.784L1991.37 673.825C1991.37 670.272 1989.79 666.719 1987.42 663.955L1959.79 633.556 1959.79 569.6C1959.79 569.6 1960.18 569.6 1960.18 569.205L1972.82 598.025C1974.4 601.973 1977.55 604.737 1981.5 606.316L2020.59 622.107C2019.4 624.871 2019.01 628.029 2019.01 631.188 2019.01 639.873 2022.96 647.374 2029.27 652.506 2029.27 652.506 2029.67 652.901 2029.67 652.901 2030.85 654.086 2032.82 654.875 2034.8 654.875 2039.14 654.875 2042.69 651.322 2042.69 646.979 2042.69 644.216 2041.51 641.847 2039.54 640.663 2037.56 638.294 2035.59 635.135 2035.59 631.188 2035.59 624.476 2040.72 619.344 2047.43 619.344 2054.14 619.344 2059.28 624.476 2059.28 631.188L2059.28 656.059 2059.28 666.719 2059.28 769.365C2059.28 773.707 2062.83 777.261 2067.17 777.261 2071.51 777.261 2075.07 773.707 2075.07 769.365L2075.07 631.188C2075.07 615.791 2062.83 603.552 2047.43 603.552Z"/><path d="M2002.03 473.271C2002.03 490.714 1987.89 504.854 1970.45 504.854 1953 504.854 1938.86 490.714 1938.86 473.271 1938.86 455.828 1953 441.688 1970.45 441.688 1987.89 441.688 2002.03 455.828 2002.03 473.271Z"/></g></g></g><text fill="#2C415C" font-family="Arial,Arial_MSFontService,sans-serif" font-weight="700" font-size="50" transform="matrix(1 0 0 1 1116.8 319)">Patient <tspan font-size="50" x="181.615" y="0">leave</tspan><tspan font-size="50" x="321.406" y="0">the</tspan><tspan font-size="50" x="410.781" y="0">Hospital</tspan></text><path d="M1635.5 608.063 1795.22 608.063 1795.22 614.938 1635.5 614.938ZM1790.64 597.75 1818.14 611.5 1790.64 625.25Z"/><path d="M1686.5 1475.06 1852.96 1475.06 1852.96 1481.94 1686.5 1481.94ZM1848.37 1464.75 1875.87 1478.5 1848.37 1492.25Z"/><g clip-path="url(#clip28)"><g clip-path="url(#clip29)"><g clip-path="url(#clip30)"><path d="M236 107.183 306.8 178.475 320.567 164.708 236 83.5833 149.467 166.183 163.233 179.95Z" transform="matrix(1 0 0 1 2601 1183)"/><path d="M393.333 284.675 354 284.675 354 245.342 393.333 245.342 393.333 284.675ZM393.333 343.675 354 343.675 354 304.342 393.333 304.342 393.333 343.675ZM334.333 284.675 295 284.675 295 245.342 334.333 245.342 334.333 284.675ZM334.333 343.675 295 343.675 295 304.342 334.333 304.342 334.333 343.675ZM270.417 284.675 201.583 284.675 201.583 265.008 270.417 265.008 270.417 284.675ZM236 191.258C244.358 191.258 250.75 197.65 250.75 206.008 250.75 214.367 244.358 220.758 236 220.758 227.642 220.758 221.25 214.367 221.25 206.008 221.25 197.65 227.642 191.258 236 191.258ZM177 284.675 137.667 284.675 137.667 245.342 177 245.342 177 284.675ZM177 343.675 137.667 343.675 137.667 304.342 177 304.342 177 343.675ZM118 284.675 78.6667 284.675 78.6667 245.342 118 245.342 118 284.675ZM118 343.675 78.6667 343.675 78.6667 304.342 118 304.342 118 343.675ZM295 220.758 295 191.258 236 132.258 177 191.258 177 220.758 59 220.758 59 387.925 201.583 387.925 201.583 333.842C201.583 320.075 211.417 304.342 236 304.342 260.583 304.342 270.417 320.075 270.417 333.842L270.417 387.925 413 387.925 413 220.758 295 220.758Z" transform="matrix(1 0 0 1 2601 1183)"/></g></g></g><text fill="#2C415C" font-family="Arial,Arial_MSFontService,sans-serif" font-weight="700" font-size="50" transform="matrix(1 0 0 1 2612.14 1147)">Municipality<tspan fill="#333333" font-family="Calibri,Calibri_MSFontService,sans-serif" font-weight="400" font-size="50" x="-2366.98" y="-63">Encounter.period.end</tspan></text><path d="M2411.5 1488.06 2577.96 1488.06 2577.96 1494.94 2411.5 1494.94ZM2573.37 1477.75 2600.87 1491.5 2573.37 1505.25Z"/><path d="M1420.15 1585 1420.15 1672.75 1417.85 1672.75 1417.85 1585ZM1432.75 1668.17 1419 1695.67 1405.25 1668.17Z" fill="#2C415C"/><path d="M2195.15 1583 2195.15 1670.75 2192.85 1670.75 2192.85 1583ZM2207.75 1666.17 2194 1693.67 2180.25 1666.17Z" fill="#2C415C"/><path d="M0-3.4375 161.131-3.4375 161.131 314.951 157.694 311.514 292.47 311.514 292.47 318.389 154.256 318.389 154.256 0 157.694 3.4375 0 3.4375ZM287.887 301.201 315.387 314.951 287.887 328.701Z" transform="matrix(1 0 0 -1 823.5 952.451)"/><path d="M0-3.4375 528.629-3.4375 528.697 152.244 521.822 152.247 521.756 0.00150339 525.193 3.4375 0 3.4375ZM538.942 147.463 525.593 175.159 511.445 147.862Z" transform="matrix(1.83697e-16 1 1 -1.83697e-16 981.5 952.5)"/></g></svg>